<svg width="186" height="155" viewBox="0 0 186 155" fill="none" xmlns="http://www.w3.org/2000/svg">
<path fill-rule="evenodd" clip-rule="evenodd" d="M14.0272 74.2217C14.0272 74.2217 6.17285 68.2717 17.192 47.7281C28.2111 27.1845 50.5268 31.6873 64.791 23.6068C85.8668 11.6674 77.2283 2.32392 103.508 0.817849C136.597 -1.07842 138.47 29.5654 155.025 29.5654C156.114 29.5654 181.892 20.3798 185.666 45.5257C187.566 58.1894 155.025 77.5007 155.025 77.5007C155.025 77.5007 141.482 88.3869 140.738 93.7625C137.619 116.307 144.123 142.128 71.2299 154.015C61.8026 155.553 46.1486 149.992 37.5123 139.719C30.7464 131.671 3.60575 137.381 1.07224 110.923C-0.204699 97.5873 14.0272 74.2217 14.0272 74.2217Z" fill="#64FCD9"/>
<path d="M62.6491 56.3472C62.8949 56.2186 63.2118 56.291 63.3568 56.509L63.9419 57.3843C66.2651 60.8408 67.1944 61.9633 68.182 62.4707C68.9938 62.8878 69.833 62.7583 71.3694 61.9593L71.5747 61.85C72.5409 61.3159 76.9625 58.6225 78.672 57.6554C78.9126 57.5193 79.2322 57.5819 79.3857 57.7953C79.5392 58.0087 79.4686 58.292 79.2279 58.4282L78.9648 58.5783C77.0598 59.6735 72.7802 62.2798 72.0226 62.6816C70.1625 63.6678 68.9566 63.8895 67.7482 63.3058L67.6638 63.2638C66.3655 62.5968 65.3556 61.317 62.4666 56.9748C62.3216 56.7568 62.4033 56.4758 62.6491 56.3472Z" fill="white"/>
<path d="M71.0189 61.6448C71.3018 61.6112 71.5618 61.7873 71.5997 62.0382C71.7757 63.2041 72.1973 64.3731 72.8667 65.5466C72.9955 65.7725 72.8934 66.0482 72.6387 66.1625C72.384 66.2767 72.0731 66.1862 71.9443 65.9603C71.224 64.6975 70.767 63.4303 70.5752 62.1598C70.5373 61.909 70.736 61.6784 71.0189 61.6448Z" fill="white"/>
<path fill-rule="evenodd" clip-rule="evenodd" d="M131.228 89.6376C131.145 89.8248 130.962 90.0838 130.75 90.3289L130.933 90.4971L131.145 90.6974L131.192 90.7375C131.213 90.7536 131.229 90.7636 131.24 90.7662C131.309 90.775 131.357 90.831 131.348 90.8923C131.338 90.9522 131.275 90.9954 131.206 90.9865C131.144 90.9854 130.919 90.9072 130.65 90.7136C130.601 90.6786 130.553 90.6381 130.503 90.5938C130.348 90.7472 130.192 90.879 130.056 90.9608C129.857 91.0826 129.685 91.0923 129.602 91.0431C129.521 90.995 129.444 90.8336 129.575 90.5073C129.596 90.4483 129.667 90.4172 129.733 90.4356C129.798 90.4541 129.835 90.5163 129.814 90.5752C129.794 90.6357 129.791 90.691 129.791 90.7352L129.867 90.6891C129.894 90.6719 129.922 90.6527 129.947 90.63C130.04 90.5494 130.143 90.4515 130.246 90.3454C130.082 90.1763 129.915 89.9778 129.78 89.7487C129.714 89.6371 129.661 89.5185 129.612 89.3938C129.577 89.3242 129.613 89.2424 129.691 89.2116C129.77 89.1808 129.862 89.2127 129.897 89.2823C130.047 89.562 130.24 89.8032 130.43 90.0097L130.493 90.0771C130.666 89.8764 130.815 89.6732 130.882 89.5184C130.919 89.4343 131.027 89.3922 131.122 89.4245C131.219 89.4582 131.266 89.5534 131.228 89.6376Z" fill="white"/>
<path fill-rule="evenodd" clip-rule="evenodd" d="M54.3284 31.8192L54.0133 31.7686C52.2542 31.4786 50.9055 31.1226 48.3859 30.3479C48.097 30.2591 47.9439 29.9793 48.0441 29.7231C48.1443 29.4669 48.4597 29.3312 48.7487 29.42L49.3766 29.6117C51.5868 30.2805 52.827 30.5872 54.5207 30.852C60.2197 31.7432 64.4868 29.1485 64.8359 24.2C64.855 23.9294 65.118 23.7237 65.4232 23.7406C65.7284 23.7575 65.9603 23.9907 65.9413 24.2614C65.5486 29.8266 60.6469 32.8072 54.3284 31.8192Z" fill="#00160A"/>
<path fill-rule="evenodd" clip-rule="evenodd" d="M68.5686 37.1186L68.8866 37.7453L69.6115 37.9298C69.6507 37.9397 69.6733 37.976 69.6621 38.0107C69.6586 38.0215 69.6521 38.0312 69.6432 38.0391L69.0925 38.5253L69.1233 39.225C69.1249 39.2611 69.0932 39.2915 69.0524 39.2929C69.0386 39.2934 69.025 39.2905 69.013 39.2844L68.3895 38.9695C68.37 38.9597 68.3465 38.9582 68.3257 38.9656L67.6589 39.2004C67.621 39.2138 67.578 39.1974 67.563 39.1638C67.5579 39.1524 67.5565 39.14 67.559 39.128L67.6993 38.4389L67.2302 37.8895C67.2056 37.8606 67.212 37.8196 67.2445 37.7977C67.2546 37.791 67.2664 37.7867 67.2788 37.7851L68.0256 37.6919L68.4388 37.1106C68.4606 37.08 68.5062 37.0708 68.5407 37.0901C68.5529 37.097 68.5627 37.1069 68.5686 37.1186Z" fill="#00160A"/>
<path d="M141.408 21.3689C141.693 21.3509 141.94 21.541 141.96 21.7935C141.981 22.0459 141.766 22.2652 141.482 22.2832C139.442 22.4122 137.841 23.1131 137.129 24.8467C137.086 24.9511 137.051 25.0518 137.022 25.1475L137.003 25.2133L137.034 25.1556C137.93 23.5334 139.658 22.4063 141.66 22.1202L141.791 22.1028C142.074 22.0678 142.335 22.2426 142.374 22.4933C142.414 22.744 142.217 22.9756 141.934 23.0106C140.074 23.2408 138.483 24.3371 137.788 25.9096L137.743 26.0151C137.414 26.8188 136.622 27.2042 136.112 26.5164C135.801 26.0969 135.822 25.3518 136.158 24.5332C137.01 22.4567 138.966 21.5235 141.408 21.3689Z" fill="white"/>
<path d="M139.054 17.9545C139.339 17.9365 139.586 18.1266 139.606 18.3791C139.627 18.6315 139.412 18.8508 139.128 18.8688C135.883 19.0741 133.039 20.9424 131.907 23.7001C131.571 24.5176 131.509 25.2165 131.629 25.5705L131.644 25.61L131.667 25.5808C131.724 25.5031 131.789 25.3916 131.853 25.2471L131.88 25.1831C133.076 22.2702 135.975 20.2302 139.374 19.8094C139.657 19.7744 139.918 19.9492 139.958 20.1999C139.997 20.4506 139.8 20.6822 139.517 20.7172C136.543 21.0853 134.001 22.8456 132.906 25.3677L132.852 25.4966C132.408 26.5768 131.449 27.0434 130.837 26.2163C130.417 25.6495 130.446 24.5795 130.936 23.3866C132.208 20.286 135.407 18.1853 139.054 17.9545Z" fill="white"/>
<path d="M135.882 13.4019C136.166 13.3839 136.414 13.574 136.434 13.8265C136.454 14.0789 136.24 14.2982 135.955 14.3162C131.328 14.609 127.271 17.2737 125.657 21.207C125.107 22.5456 125.061 23.6802 125.361 24.1518L125.389 24.1917C125.433 24.2516 125.418 24.2534 125.43 24.2451L125.437 24.2411C125.589 24.1671 125.789 23.915 125.973 23.4969L126.009 23.411C127.658 19.3937 131.656 16.5803 136.345 15.9999C136.627 15.9649 136.889 16.1397 136.928 16.3904C136.967 16.6411 136.77 16.8727 136.488 16.9077C132.23 17.4347 128.593 19.9623 127.041 23.5811L126.98 23.7245C126.407 25.1222 125.256 25.6821 124.525 24.695C123.98 23.9591 124.019 22.5161 124.685 20.8935C126.44 16.6174 130.852 13.7202 135.882 13.4019Z" fill="white"/>
<path d="M130.218 9.1234C130.498 9.07475 130.77 9.23668 130.825 9.48508C130.88 9.73348 130.697 9.97428 130.417 10.0229C126.228 10.7504 122.86 13.5876 121.883 17.3404C121.552 18.6105 121.652 19.6432 121.976 20.0372L122.019 20.0866L122.023 20.0935L122.029 20.0893C122.145 19.9964 122.281 19.7588 122.386 19.3906L122.408 19.3097C123.413 15.45 126.731 12.4623 130.97 11.459C131.245 11.3937 131.529 11.5391 131.602 11.7836C131.676 12.0282 131.512 12.2793 131.236 12.3446C127.418 13.2486 124.418 15.9145 123.455 19.3694L123.415 19.5159C123.061 20.8771 122.044 21.5269 121.219 20.6652C120.616 20.035 120.468 18.6977 120.875 17.1342C121.945 13.0259 125.633 9.91975 130.218 9.1234Z" fill="white"/>
<path d="M72.9281 65.6477L73.2265 65.5514C76.0462 64.6541 78.4254 64.2581 79.0297 64.8034C79.5597 65.2816 80.0321 66.1476 80.4798 67.4178C80.5649 67.6593 80.4131 67.9164 80.1407 67.9919C79.8683 68.0674 79.5784 67.9328 79.4932 67.6912C79.106 66.5927 78.7109 65.8534 78.3373 65.4879L78.3218 65.4736L78.3085 65.4743C78.2378 65.4614 78.1317 65.455 77.9966 65.4573C77.6988 65.4624 77.2917 65.509 76.8055 65.5944C75.8054 65.7701 74.5412 66.097 73.2858 66.5076C71.1868 67.1943 69.4382 68.001 68.4722 68.7298C68.1176 68.9973 67.47 68.2521 68.0931 67.8251C69.2142 67.0569 70.9147 66.3063 72.9281 65.6477Z" fill="white"/>
<path d="M71.5091 56.9895C71.5091 58.5182 73.3322 60.1734 73.7201 60.2676C73.9954 60.3345 69.2523 63.075 69.2523 63.075C67.5384 63.275 66.532 61.9904 66.532 60.0766C66.532 59.8235 71.5091 56.7364 71.5091 56.9895Z" fill="white"/>
<path fill-rule="evenodd" clip-rule="evenodd" d="M65.9162 57.7929C66.5166 57.6894 66.9245 57.2458 66.8272 56.8021C66.73 56.3584 66.1644 56.0827 65.564 56.1861C64.9636 56.2896 64.5558 56.7332 64.653 57.1769C64.7503 57.6206 65.3158 57.8964 65.9162 57.7929Z" fill="#FFB61D"/>
<path d="M127.092 6.58192C127.373 6.53848 127.641 6.70542 127.69 6.95478C127.739 7.20414 127.551 7.4415 127.27 7.48494C125.932 7.69152 124.584 8.40937 123.193 9.55119C121.387 11.0338 120.195 13.0825 119.537 15.8141C119.007 18.0148 119.496 20.7647 120.881 23.1821C122.457 25.9324 125.244 26.6122 128.493 27.1385C131.829 27.6789 132.751 27.3452 135.904 26.3514L136.194 26.2579C136.625 26.1132 138.639 25.4143 139.123 25.2844C140.143 25.0111 140.838 25.0339 141.342 25.5103C141.537 25.6949 141.527 25.9849 141.319 26.1581C141.123 26.3205 140.824 26.3226 140.626 26.1701L140.588 26.1376C140.439 25.997 140.132 25.9807 139.513 26.1381L139.423 26.1618C138.957 26.2867 136.772 27.047 136.489 27.1385C133.085 28.2407 131.93 28.6269 128.308 28.0402C124.718 27.4588 121.673 26.5885 119.96 23.5972C118.471 20.9976 117.946 18.0347 118.526 15.6227C119.228 12.7074 120.528 10.4903 122.491 8.87862C124.027 7.61698 125.558 6.8189 127.092 6.58192Z" fill="white"/>
<path d="M151.405 43.0497C148.459 42.9161 146.139 44.934 146.114 47.6428C146.094 49.925 147.543 51.8043 149.535 52.1684C150.34 52.3156 151.886 52.1386 153.033 51.5683C154.774 50.7401 156.105 49.0376 156.273 47.587C156.547 45.2237 154.389 43.185 151.405 43.0497Z" fill="white"/>
<path d="M98.0166 42.5724C98.9577 44.258 100.419 48.1512 99.7869 48.1325C98.0312 48.0805 95.6823 45.6876 94.0392 42.4523L93.9096 42.1921C92.475 39.2546 91.616 37.4091 92.6136 37.0556C93.6454 36.69 96.0743 39.0936 98.0166 42.5724Z" fill="white"/>
<path fill-rule="evenodd" clip-rule="evenodd" d="M92.6136 37.0189C93.6454 36.6533 96.11 38.9471 98.0523 42.4259C98.9934 44.1115 99.6317 45.7284 99.7985 46.8879C99.7985 46.8879 96.6202 40.9493 94.6817 38.7741C93.937 37.9386 92.6136 37.0189 92.6136 37.0189Z" fill="#E7EAEE"/>
<path d="M92.0722 51.9749C92.1479 51.7309 92.4324 51.5875 92.7076 51.6546C92.9828 51.7217 93.1445 51.974 93.0688 52.218C92.9715 52.532 91.6025 53.3554 88.6156 54.9882L86.7302 56.0115C83.0082 58.0208 80.5247 59.3065 80.2141 59.3065C78.1591 59.3065 76.3073 57.5873 74.9554 54.8747C73.7749 52.5062 73.1621 49.6869 73.4388 47.8393C73.5252 47.2627 75.6917 45.7699 79.0368 43.77L79.5159 43.4853C82.4753 41.737 85.0049 40.4403 85.9201 40.2766C86.1999 40.2265 86.4724 40.3871 86.5289 40.6352C86.5642 40.7904 78.4069 46.8879 77.6101 50.935C77.0705 53.6752 79.1103 58.3457 80.1227 58.3879L80.2141 58.3899C80.1319 58.3899 80.1582 58.3728 80.1679 58.368L80.2611 58.3254C80.3297 58.2935 80.4112 58.2545 80.5051 58.2088L80.9351 57.9955C81.0996 57.9128 81.283 57.8197 81.4835 57.717L81.9964 57.4528C82.9757 56.9458 84.1976 56.3003 85.4438 55.6316L86.6291 54.9925C88.0705 54.2115 89.3728 53.4915 90.3515 52.9323L90.8557 52.6418C91.168 52.4601 91.4318 52.3029 91.6428 52.1726L91.7194 52.125C91.8357 52.0523 91.9324 51.9897 92.0078 51.9384C92.0078 51.9384 92.0928 51.9085 92.0722 51.9749Z" fill="white"/>
<path fill-rule="evenodd" clip-rule="evenodd" d="M93.0968 42.8287C91.848 40.3697 91.2962 38.1162 91.7144 36.7517C90.9587 36.9647 90.014 37.3474 89.0763 37.8245C87.8298 38.4586 86.8406 39.1674 86.8175 39.3213C86.5766 40.9297 87.5013 44.0588 89.038 46.8485C90.6817 49.8325 92.6373 51.7491 94.1511 51.7491C94.296 51.7491 94.7107 51.6733 95.1265 51.5445C95.7179 51.3613 96.2719 51.0944 96.7257 50.7448C96.9514 50.5709 97.185 50.3744 97.429 50.1551L97.7229 49.8856C97.8963 49.7231 98.0752 49.548 98.3545 49.2706L98.7434 48.8855L98.7601 48.8692C96.8128 48.2381 94.776 46.0138 93.2525 43.1292L93.0968 42.8287ZM85.7929 39.2006C85.9537 38.1276 90.4836 35.8082 92.551 35.6584C92.6374 35.6103 92.73 35.5686 92.8287 35.5336C94.619 34.8992 97.347 37.6167 99.5353 41.4404L99.6853 41.7059C100.673 43.4749 101.347 45.1819 101.53 46.4586C101.75 47.9844 101.252 48.996 99.9455 49.0478C99.9105 49.168 99.822 49.2685 99.7046 49.3291L99.6845 49.3383L99.6335 49.3834C99.5823 49.4301 99.522 49.488 99.4289 49.5798L98.7867 50.2154C98.5536 50.4432 98.3886 50.5977 98.1648 50.7988C97.9033 51.0339 97.6509 51.2463 97.4036 51.4367C96.4031 52.2075 94.9239 52.6658 94.1511 52.6658C93.7413 52.6658 93.3268 52.5812 92.9115 52.4199C92.4679 52.8303 91.1026 53.6287 88.6155 54.9883L86.7302 56.0115C83.0082 58.0208 80.5246 59.3065 80.2141 59.3065C79.5103 59.3065 78.8304 59.1048 78.1861 58.7307C78.1802 58.7344 78.1742 58.738 78.168 58.7415L77.9049 58.8916C76.9893 59.418 75.5252 60.2934 74.1673 61.1054L74.1669 61.1056L74.082 61.1563C74.2578 62.2693 74.6574 63.3852 75.2827 64.5052C77.5024 63.8965 79.2607 63.6908 79.768 64.1486C80.298 64.6268 80.7703 65.4928 81.2181 66.763C81.3032 67.0046 81.1514 67.2617 80.879 67.3372C80.6066 67.4127 80.3167 67.2781 80.2315 67.0365C79.8443 65.938 79.4492 65.1987 79.0756 64.8332L79.0601 64.8189L79.0468 64.8195C78.9761 64.8067 78.87 64.8003 78.7349 64.8026C78.4371 64.8077 78.03 64.8542 77.5438 64.9397C76.5436 65.1154 75.2795 65.4422 74.0241 65.8529C71.1544 66.7916 68.9397 67.9549 68.4845 68.8364C68.3513 69.0944 68.3683 69.472 68.5276 70.0501L68.5572 70.1542C68.5811 70.2362 68.6061 70.3174 68.6387 70.4201L68.8254 71.0058C68.8331 71.0315 68.8408 71.0576 68.8505 71.0907C68.9222 71.3357 68.7564 71.5858 68.4801 71.6494C68.2038 71.713 67.9217 71.566 67.85 71.321L67.7582 71.0246L67.6054 70.5462C67.5879 70.4896 67.5722 70.4374 67.5566 70.3843C67.3145 69.5563 67.2756 68.976 67.5447 68.4548C68.001 67.5711 69.4285 66.6556 71.4162 65.8232L70.9839 64.8329L70.8771 64.5825C70.7134 64.192 70.5229 63.6625 70.4061 63.2762C68.8532 64.0184 67.7717 64.1425 66.6882 63.6192L66.6039 63.5771C66.3896 63.467 66.1832 63.3403 65.9748 63.1858L59.9176 66.4483C59.9739 66.5559 60.0308 66.6644 60.0883 66.7737C60.36 67.2906 59.8807 67.6566 59.1455 67.9413L59.0662 67.9712C58.4342 68.2033 57.864 68.2566 57.5245 67.9261C56.1159 66.5551 54.6248 63.2756 55.427 62.5255C55.581 62.3815 55.9877 62.1671 56.7567 61.8094L56.818 61.7811C56.8337 61.7715 56.8501 61.7625 56.8673 61.7542L62.5294 59.0339C62.5424 59.0276 62.5555 59.0219 62.5688 59.0168C62.219 58.5038 61.8355 57.9326 61.4115 57.2954C61.3909 57.2658 61.3745 57.2345 61.3622 57.2024C61.3344 57.1298 61.3282 57.0537 61.3418 56.9808C61.3528 56.9213 61.377 56.8635 61.4143 56.811C61.4388 56.7764 61.4688 56.7444 61.5038 56.7162C62.6678 55.7373 64.254 54.7166 66.2435 53.6175L66.4848 53.4849C67.346 53.0141 69.0926 52.1307 70.5764 51.3802C71.7273 50.7981 72.7201 50.2959 73.0192 50.1282L73.0915 50.0856C73.1996 50.0155 73.3283 49.988 73.4517 49.9998C73.3534 49.2048 73.3449 48.4662 73.4388 47.8393C73.5252 47.2627 75.6916 45.77 79.0368 43.77L79.5159 43.4853C82.3196 41.8289 84.7376 40.578 85.7624 40.3117C85.7349 39.9013 85.7439 39.5275 85.7929 39.2006ZM85.8756 41.2411C84.8717 41.5665 82.3577 42.8901 79.6146 44.5301L79.1753 44.7943C77.9408 45.5413 76.8003 46.2696 75.9389 46.8631L75.6996 47.0296C75.3152 47.2998 75.0041 47.5325 74.7785 47.7192C74.6654 47.8129 74.5762 47.893 74.5133 47.9567L74.4693 48.0027C74.4597 48.0116 74.4572 48.0082 74.4608 47.9793L74.4634 47.9601C74.4623 47.9674 74.4614 47.9738 74.4608 47.9793L74.4471 48.0777C73.9502 51.9455 77.1039 58.262 80.1227 58.388L80.1937 58.3894C80.1996 58.3897 80.2064 58.3899 80.2141 58.3899L80.1937 58.3894C80.1367 58.3868 80.1591 58.3724 80.1679 58.368L80.2611 58.3254C80.3297 58.2935 80.4112 58.2545 80.5051 58.2088L80.9351 57.9955C81.0996 57.9128 81.283 57.8197 81.4834 57.717L81.9964 57.4528C82.9757 56.9458 84.1975 56.3003 85.4438 55.6316L86.6291 54.9925C88.0705 54.2115 89.3728 53.4915 90.3515 52.9323L90.8557 52.6418C91.168 52.4601 91.4318 52.3029 91.6427 52.1726L91.7193 52.125C91.8311 52.0552 91.9246 51.9947 91.9987 51.9446C90.6675 51.0783 89.3566 49.4783 88.193 47.4016L88.1092 47.2509C86.9877 45.2149 86.1767 43.0101 85.8756 41.2411ZM73.5944 50.8884C73.2215 51.0965 72.122 51.6533 70.8984 52.2728L70.8978 52.2732L70.8976 52.2733L70.8975 52.2733L70.8974 52.2734C69.447 53.0078 67.8225 53.8304 67.0272 54.2652C65.1489 55.2921 63.6341 56.2441 62.5095 57.1404L62.882 57.6976C64.5119 60.1226 65.4557 61.3988 66.2148 62.1197C65.9626 61.5893 65.832 60.916 65.832 60.0716C65.832 60.0328 65.8374 59.995 65.8477 59.9589C65.7975 59.7834 65.8681 59.5906 66.0429 59.4768L66.3949 59.2448C66.6058 59.1034 66.9526 58.8683 67.347 58.6011L67.3478 58.6005L67.3482 58.6003C68.2127 58.0144 69.305 57.2742 69.6947 57.0267C70.9203 56.2481 71.8237 55.8112 72.6463 55.6596C73.0392 55.5872 73.3444 55.7933 73.4329 56.1126L73.4474 56.1706C73.468 56.2656 73.4718 56.3591 73.4713 56.5632L73.471 56.6279C73.4668 57.3905 73.552 57.8306 73.9162 58.339C74.1655 58.6869 74.5317 59.0043 75.042 59.2886C75.0954 59.3183 75.1405 59.3553 75.1768 59.3972C76 58.907 76.7711 58.451 77.3399 58.124C76.4436 57.3546 75.6361 56.2406 74.9554 54.8747C74.3213 53.6025 73.851 52.2003 73.5944 50.8884ZM100.505 46.5746C100.338 45.415 99.7001 43.7981 98.759 42.1126C96.8166 38.6338 94.2441 36.0191 93.2122 36.3848C92.2146 36.7383 92.475 39.2546 93.9096 42.192L94.0393 42.4523C95.6823 45.6876 98.0312 48.0805 99.787 48.1325C100.419 48.1512 100.666 47.6934 100.505 46.5746ZM63.1028 59.7917C63.9994 61.0771 64.6545 61.9264 65.2251 62.5171L59.4829 65.61C58.8947 64.4665 58.3685 63.4021 57.8579 62.3208L63.0218 59.8398C63.051 59.8258 63.078 59.8096 63.1028 59.7917ZM74.2915 64.7943C73.7343 63.7724 73.3494 62.7475 73.1378 61.7205C72.3958 62.1633 71.7501 62.5467 71.3351 62.7858C71.4062 63.102 71.6704 63.8526 71.8981 64.3862L72.3222 65.3544L72.3626 65.4489C72.7794 65.2928 73.2151 65.1406 73.6664 64.9929L73.9648 64.8966C74.0744 64.8618 74.1833 64.8276 74.2915 64.7943ZM74.273 59.9365C73.7437 59.6111 73.3378 59.2409 73.0438 58.8305C72.5679 58.1662 72.4429 57.599 72.4374 56.742L72.4372 56.6653L72.3641 56.6896C71.84 56.87 71.2147 57.1962 70.429 57.6883L70.2966 57.7718C69.9225 58.0095 68.8578 58.7309 67.9991 59.3129C67.5216 59.6364 67.1078 59.9169 66.9117 60.047L66.8656 60.0773C66.8666 61.602 67.2958 62.3017 68.094 62.6411L68.1578 62.6672C68.3481 62.7418 68.4838 62.7794 68.8717 62.8735C68.8795 62.8754 68.8871 62.8774 68.8946 62.8796C69.2972 62.7596 69.7585 62.5592 70.3094 62.2726L70.5147 62.1634C70.9696 61.9119 72.1903 61.1819 73.5333 60.3787L73.5343 60.3781L73.5345 60.378L74.273 59.9365ZM56.9445 62.7592L57.0237 62.9264C57.5726 64.0805 58.143 65.2235 58.7904 66.4701L59.0421 66.9537C58.9596 67.0029 58.8511 67.0551 58.7318 67.1013C58.5604 67.1677 58.3865 67.2142 58.2557 67.2299L58.214 67.2336L58.1511 67.1667C57.6619 66.6325 57.0941 65.725 56.6837 64.8225C56.4652 64.3418 56.3095 63.9009 56.2394 63.5622C56.2108 63.4242 56.1975 63.3082 56.1987 63.2203L56.2017 63.1623C56.2027 63.1482 56.2027 63.1409 56.1988 63.1399L56.2143 63.1306C56.3017 63.0772 56.5249 62.9614 56.8565 62.8015L56.9445 62.7592ZM64.0737 61.7494C63.8738 61.5688 63.5466 61.566 63.3429 61.7432C62.9844 62.055 62.4822 62.3453 61.6049 62.7772L60.7122 63.2166C60.4763 63.3357 60.2832 63.4385 60.1083 63.5391C59.9622 63.6232 59.8315 63.7043 59.7142 63.7847C59.4883 63.9395 59.4467 64.2273 59.6212 64.4276C59.7958 64.6279 60.1203 64.6648 60.3462 64.51C60.4394 64.4462 60.5472 64.3792 60.6708 64.3081C60.785 64.2424 60.9105 64.1743 61.0557 64.099L61.3403 63.9546L62.2472 63.5091C63.1184 63.0754 63.6434 62.7657 64.0667 62.3976C64.2704 62.2203 64.2736 61.9301 64.0737 61.7494Z" fill="#00160A"/>
<path d="M52.5134 108.291C55.0978 121.069 64.7844 130.675 77.1449 132.94C79.4139 133.356 83.3426 133.411 87.411 132.944C92.6527 132.342 97.754 130.962 102.24 128.726C114.565 122.851 123.917 110.864 125.129 100.369C126.194 91.151 122.223 82.6351 115.033 76.56C115.033 76.56 92.45 86.3966 81.3641 91.9876C71.7174 96.8527 52.5134 108.291 52.5134 108.291Z" fill="white"/>
<path d="M105.107 70.1862C100.475 68.1594 94.6711 66.5584 88.9801 66.3004C68.1078 65.354 51.6921 80.1404 51.5209 99.2125C51.5209 99.2125 74.8166 86.0539 86.9192 79.7052C92.9403 76.5467 105.107 70.1862 105.107 70.1862Z" fill="white"/>
<path fill-rule="evenodd" clip-rule="evenodd" d="M148.039 60.4662C147.969 63.6527 144.166 68.9563 138.054 74.958C133.626 79.3055 128.474 83.5079 124.154 86.3397L123.886 86.5143L124.064 87.218C125.115 91.3009 126.486 95.7392 125.968 100.215C124.71 111.079 115.128 123.335 102.466 129.357C97.8477 131.654 92.5983 133.071 87.2136 133.688L86.7002 133.744C82.6852 134.163 78.8431 134.094 76.4952 133.664C67.3817 131.998 59.666 126.349 55.0012 118.172C54.9855 118.145 54.9733 118.117 54.9643 118.088C54.3501 118.399 53.5239 118.746 53.1466 118.86L52.1127 119.169C40.9712 122.492 29.9258 125.273 25.4136 123.538C23.6958 122.877 23.1087 121.607 23.8271 119.9C24.5252 118.241 26.461 116.104 29.7086 113.444L29.8871 113.298C32.9645 110.796 39.7986 106.225 50.3893 99.5842L50.392 99.4623C50.9087 79.7844 68.1451 64.7833 89.8108 66.0078C96.4376 66.3824 101.715 68.4708 104.351 69.7531L105.51 69.2015C116.382 64.0462 125.106 60.4225 131.762 58.2535C142.707 54.6866 148.121 56.3543 148.039 60.4662ZM132.118 60.3672C119.879 64.3558 100.535 73.326 73.6039 87.7555L72.7855 88.1945C51.8147 99.4521 37.9282 108.005 30.5855 113.974L30.2236 114.27L29.8805 114.555C24.3685 119.174 23.3915 121.761 25.8248 122.697C29.9902 124.299 41.1764 121.598 52.131 118.412L53.1465 118.115C54.1234 117.828 54.7713 117.663 55.1723 117.587C55.1897 117.576 55.2089 117.566 55.229 117.557C55.3661 117.495 55.5194 117.493 55.6519 117.539C55.6806 117.544 55.6993 117.552 55.7091 117.563C55.7983 117.606 55.8742 117.672 55.9235 117.759C60.4519 125.696 67.9139 130.533 76.7039 132.14C78.9856 132.557 82.8351 132.618 86.8407 132.179L87.0812 132.152C92.3419 131.549 97.4657 130.793 101.969 128.553C114.342 122.668 123.718 110.677 124.94 100.121C125.462 95.6104 124.795 91.1824 123.024 87.061C122.878 87.1518 122.732 87.2407 122.589 87.3277C122.317 87.4922 122.418 87.2258 122.893 86.5285C122.918 86.4375 122.975 86.3547 123.056 86.2925L123.202 86.0869C123.254 86.0154 123.308 85.9409 123.364 85.8633L123.977 85.4051C129.75 81.0749 134.187 77.3878 137.287 74.3436L137.641 73.9943C143.377 68.3018 146.943 63.2736 147.001 60.4493C147.066 57.351 142.457 56.9982 132.118 60.3672ZM80.2208 118.328C81.6076 122.086 79.5098 124.503 75.817 124.628C72.4049 124.744 69.2978 122.837 69.4561 120.128C69.593 117.786 71.401 115.283 73.627 114.364C76.319 113.252 78.8456 114.601 80.2208 118.328ZM74.1724 115.402C72.3911 116.138 70.8592 118.259 70.7465 120.187C70.6342 122.107 73.0278 123.576 75.7677 123.484C78.6322 123.387 80.1027 121.692 78.9928 118.684C77.8373 115.552 76.0803 114.614 74.1724 115.402ZM108.415 110.669C110.184 113.634 109.721 116.547 107 117.852L106.924 117.888L106.884 117.923C103.236 121.127 98.6782 121.515 95.706 119.193L95.6042 119.112C92.1805 116.331 92.9962 111.552 98.444 107.807C101.95 105.396 106.233 107.013 108.415 110.669ZM99.1226 108.583C94.1768 111.983 93.4816 116.056 96.3522 118.388C98.4111 120.06 101.453 120.153 104.294 118.529L104.35 118.497L104.329 118.493C104.132 118.447 103.975 118.306 103.93 118.123L103.921 118.076C103.885 117.807 104.102 117.562 104.406 117.53C105.1 117.457 105.703 117.309 106.214 117.096L106.284 117.066L106.369 116.988C106.702 116.677 107.028 116.338 107.343 115.972L107.448 115.849C107.566 115.708 107.753 115.64 107.937 115.653L107.951 115.654L107.959 115.642C108.622 114.479 108.465 112.904 107.494 111.227L107.436 111.128C105.538 107.949 101.992 106.61 99.1226 108.583ZM132.057 73.3404C131.772 74.2371 130.906 75.4676 129.578 76.9248C127.263 79.465 123.786 82.4217 120.747 84.4435L121.421 83.786C121.414 83.7807 121.409 83.7737 121.404 83.7657L121.171 83.3867C119.65 80.9248 117.956 78.4964 115.218 76.5167C108.129 79.1085 100.002 82.6511 92.5971 86.3553L90.1699 87.5719C72.2965 96.5505 62.8928 101.926 52.8371 108.534C53.2167 110.05 53.6948 111.529 54.2676 112.962C54.3575 113.187 53.1832 114.028 52.9682 113.925C50.9621 115.116 47.8209 115.982 46.0325 116.027C44.2896 116.071 43.2826 115.445 43.8014 114.198C44.2353 113.154 45.87 111.666 48.8118 109.671L49.1472 109.445L49.8253 108.993C60.897 101.643 71.8577 95.6777 92.0892 85.5569L92.9359 85.1356C106.812 78.2669 122.881 72.0788 130.241 71.5077C131.753 71.3904 132.44 72.1328 132.057 73.3404ZM51.4907 109.423L49.1709 110.975C47.1016 112.367 45.6097 113.396 44.8038 114.056L44.7446 114.105C43.761 114.923 44.8744 115.139 46.0032 115.111C47.7131 115.068 50.3326 113.918 52.5499 112.872C52.1401 111.746 51.7865 110.595 51.4907 109.423ZM87.7758 104.447C88.0524 104.509 88.2198 104.758 88.1495 105.004C88.0793 105.249 87.7981 105.397 87.5214 105.335C86.1316 105.022 85.3107 105.142 85.0443 105.474C84.8676 105.694 84.9655 106.07 85.2959 106.309C85.5541 106.497 85.8979 106.586 86.1345 106.541C86.3402 106.501 86.4554 106.36 86.4554 106.008C86.4554 105.755 86.6868 105.55 86.9722 105.55C87.2577 105.55 87.4891 105.755 87.4891 106.008C87.4891 106.774 87.0573 107.301 86.3543 107.436C85.7892 107.545 85.1308 107.374 84.6414 107.019C83.919 106.495 83.6829 105.59 84.2022 104.943C84.7713 104.233 86.0186 104.051 87.7758 104.447ZM65.0735 102.764C65.8705 102.976 66.2138 103.519 66.3221 104.333L66.3328 104.421L66.3459 104.555C66.3478 104.577 66.3495 104.6 66.3513 104.625L66.3784 105.09L66.3865 105.195C66.3908 105.241 66.3953 105.279 66.4007 105.312L66.4145 105.382L66.4229 105.413L66.4373 105.424C66.5968 105.563 66.6392 105.78 66.536 105.959L66.5096 106C66.3549 106.213 66.035 106.274 65.7952 106.137C65.4651 105.948 65.3901 105.754 65.3501 105.196L65.3173 104.651C65.3135 104.601 65.3094 104.559 65.3041 104.51C65.2453 103.976 65.0985 103.728 64.7768 103.642C63.8741 103.402 63.356 103.647 63.1919 104.182C63.0457 104.659 63.2573 105.16 63.6276 105.299L63.7215 105.33C63.9636 105.422 64.0918 105.664 64.0102 105.891C63.9235 106.132 63.6327 106.265 63.3608 106.188C62.3766 105.91 61.909 104.873 62.1945 103.942C62.5132 102.902 63.6216 102.378 65.0735 102.764ZM102.36 95.7463C103.791 97.5306 103.525 99.8008 101.229 100.828C100.974 100.942 100.663 100.851 100.535 100.625C100.406 100.399 100.509 100.124 100.763 100.01C102.426 99.266 102.616 97.6464 101.518 96.2776C100.451 94.9478 98.9667 94.8016 97.9465 96.2385C96.8649 97.7617 96.9435 98.6559 97.7222 99.0585C98.3404 99.3782 99.3358 99.311 99.6095 99.0497L99.636 99.021C99.8016 98.8148 100.124 98.7666 100.357 98.9134C100.589 99.0602 100.644 99.3463 100.478 99.5525C99.9036 100.268 98.264 100.4 97.2015 99.8503C95.8413 99.147 95.7111 97.6663 97.0718 95.75C98.5287 93.6982 100.905 93.9323 102.36 95.7463ZM80.9327 93.1183C81.2014 93.1183 81.4221 93.3001 81.4472 93.5325L81.4495 93.5766C81.4495 93.6573 81.5341 93.7475 81.8374 93.9448L82.1243 94.1273C82.4372 94.3297 82.5881 94.4552 82.7306 94.6551C83.0565 95.112 83.2412 95.5772 83.2412 96.1241C83.2412 97.5249 80.8683 99.43 78.2783 100.278C75.1734 101.294 72.6296 100.54 71.9374 97.715C71.8768 97.4677 72.0538 97.2236 72.3327 97.1698C72.6116 97.1161 72.8869 97.273 72.9475 97.5204C73.4847 99.7131 75.3395 100.263 77.9204 99.4178C80.1491 98.6884 82.2076 97.0357 82.2076 96.1241C82.2076 95.7716 82.0865 95.4669 81.857 95.145L81.8259 95.1062C81.7732 95.0474 81.691 94.9835 81.5429 94.8861L81.2019 94.6683C80.6353 94.2978 80.4159 94.0478 80.4159 93.5766C80.4159 93.3235 80.6473 93.1183 80.9327 93.1183ZM83.3587 67.7157L83.0323 67.7483C65.3967 69.629 52.1666 82.1376 51.445 98.9233L53.3373 97.7426C58.7686 94.3617 65.0729 90.4998 72.2503 86.157L73.6488 85.4075C77.824 83.1735 81.8161 81.0714 85.6271 79.0993C85.5575 78.9911 85.538 78.8584 85.5852 78.7308C85.8516 78.0094 86.0979 77.5249 86.5491 77.0395C87.9611 75.5203 89.8958 74.7784 91.2664 75.7322C91.4013 75.8261 91.4693 75.9677 91.4638 76.1089L92.6814 75.4928C96.5154 73.5574 100.143 71.7699 103.567 70.1278L102.23 69.7904C100.247 69.2954 97.7792 68.7083 95.3215 68.2563C95.3439 69.7066 94.1197 70.8648 92.0858 71.6613C90.3569 72.3385 88.1038 72.7028 86.5018 72.6181C83.5048 72.4597 81.8179 70.1287 83.3587 67.7157ZM114.295 87.6192C115.56 90.6834 114.516 93.4697 111.358 93.4516C106.859 93.4255 102.465 89.9416 103.175 86.8206C103.492 85.4282 104.673 84.1966 106.725 83.5819C110.003 82.6003 113.007 84.5 114.295 87.6192ZM107.056 84.4504C105.36 84.9584 104.434 85.9243 104.189 87.002C103.625 89.4791 107.45 92.5123 111.365 92.535C113.607 92.5479 114.379 90.4887 113.324 87.9343C112.209 85.2312 109.714 83.6542 107.056 84.4504ZM69.0531 73.6007L69.0899 73.6479L69.3386 73.9987C69.4605 74.1768 69.5696 74.3515 69.6735 74.5399C70.8181 76.6153 70.7886 79.3359 68.8515 83.1125C67.9739 84.8234 65.7384 87.1226 63.7862 88.4947C61.2935 90.2467 59.4323 90.6446 57.2108 90.4283L56.5517 90.3597L56.4713 90.3531C56.4272 90.3503 56.399 90.35 56.3681 90.3509L56.3229 90.3526C56.2885 90.3541 56.2766 90.3525 56.2746 90.3485L56.2745 90.3454L56.2579 90.3692C56.1081 90.5598 55.8169 90.6225 55.583 90.5071C55.3336 90.3841 55.2439 90.105 55.3826 89.8838C55.5684 89.5877 55.8788 89.4537 56.2739 89.4371C56.3786 89.4327 56.4893 89.4358 56.6211 89.4455L56.7752 89.4588L57.2016 89.5047C59.225 89.7223 60.8349 89.3994 63.1442 87.7763C64.9779 86.4876 67.1091 84.2955 67.9106 82.733C69.7233 79.1989 69.7498 76.7645 68.745 74.9426C68.678 74.8213 68.6083 74.706 68.5326 74.5903L68.4244 74.4299L68.2077 74.1261C68.0561 73.9116 68.1292 73.6288 68.371 73.4943C68.5977 73.3683 68.8922 73.4174 69.0531 73.6007ZM130.331 72.4209C127.027 72.6772 121.847 74.1245 115.877 76.2773L116.051 76.4143C117.713 77.7364 121.065 80.8714 122.115 83.1077L123.16 82.0798C125.739 79.5357 127.611 77.6254 128.774 76.3487L129.01 76.0869C130.122 74.8354 130.84 73.7898 131.062 73.0922L131.093 72.9862C131.231 72.4826 131.071 72.3634 130.331 72.4209ZM80.8442 73.9097C82.1304 74.4612 82.6525 75.6889 81.8063 76.802C81.6467 77.0119 81.3255 77.0673 81.0889 76.9259C80.8522 76.7844 80.7897 76.4995 80.9492 76.2896C81.4147 75.6773 81.1521 75.0599 80.3943 74.7349C79.5962 74.3927 78.7218 74.5895 78.2705 75.3365C77.8547 76.0247 77.8261 76.9566 78.1581 77.5669C78.4496 78.1026 78.8738 78.2053 79.5211 77.7732C79.7491 77.621 80.0732 77.6615 80.2448 77.8637C80.4165 78.066 80.3708 78.3533 80.1427 78.5055C78.9633 79.2929 77.7957 79.0103 77.2272 77.9652C76.7505 77.089 76.7886 75.8484 77.3594 74.9036C78.0876 73.6983 79.5721 73.3643 80.8442 73.9097ZM87.3466 77.6225C87.1057 77.8817 86.9335 78.1552 86.7739 78.5063C88.1057 77.8202 89.4149 77.1499 90.7016 76.4955L90.6642 76.4762L90.6282 76.4533C89.8391 75.9041 88.448 76.4376 87.3466 77.6225ZM85.1426 67.5755L84.6906 67.6037L84.6604 67.6375C82.8738 69.6397 83.5619 71.2648 86.0018 71.4956C87.7541 71.6613 92.4058 70.5085 92.9514 70.1038C93.4829 69.7098 94.155 68.8034 94.2585 68.0692C92.6798 67.806 91.1356 67.6124 89.7579 67.55C88.3503 67.4861 86.962 67.4877 85.5968 67.5518L85.1426 67.5755Z" fill="#00160A"/>
<path d="M131.805 60.4808C142.75 56.9139 142.5 57.9721 132.161 61.3412C119.922 65.3297 73.7207 90.3214 73.7207 90.3214C52.7498 101.579 51.1811 99.8413 71.5074 88.8865L72.7604 88.2126C72.9964 88.0859 96.1383 75.1337 112.675 68.2043C114.535 67.4245 130.558 60.8869 131.805 60.4808Z" fill="white"/>
<path fill-rule="evenodd" clip-rule="evenodd" d="M150.704 42.7232C147.313 42.5694 144.665 44.9068 144.638 47.9649C144.615 50.5272 146.272 52.7028 148.647 53.137C149.273 53.2514 151.078 53.2514 152.643 52.4726L152.773 52.4093C154.747 51.4181 156.09 49.5324 156.269 47.9812C156.588 45.2311 154.096 42.877 150.704 42.7232ZM145.376 47.9701C145.376 47.9507 145.376 47.9313 145.377 47.912C145.398 47.9059 145.419 47.898 145.44 47.8882C148.099 46.6179 149.741 45.6498 150.396 44.9508C150.829 44.4891 151.04 43.9684 151.023 43.4025C151.469 43.4463 151.894 43.5332 152.293 43.6575C152.291 43.6745 152.29 43.6918 152.291 43.7095C152.323 44.5234 152.078 45.1742 151.558 45.6808C150.96 46.263 150.236 46.8171 149.413 47.3396C148.532 47.8982 147.587 48.3915 146.642 48.8138C146.421 48.9123 146.211 49.0021 146.014 49.0831L145.729 49.1979C145.688 49.214 145.65 49.2287 145.615 49.2421L145.531 49.2738C145.426 48.861 145.372 48.4235 145.376 47.9701ZM145.738 49.9067C145.972 50.4816 146.31 50.9911 146.73 51.4061L146.95 51.2935C150.42 49.5119 152.575 48.1123 153.39 47.1249C154.215 46.1266 154.508 45.3601 154.324 44.8388C154.32 44.8265 154.316 44.8142 154.313 44.8018C153.95 44.4637 153.518 44.1731 153.031 43.9437C153.01 44.809 152.701 45.5398 152.104 46.1215C151.468 46.7406 150.706 47.3243 149.842 47.872C148.928 48.452 147.951 48.962 146.974 49.3985C146.689 49.5258 146.421 49.6393 146.174 49.7386L145.886 49.8517L145.738 49.9067ZM148.502 52.4299C148.066 52.3143 147.66 52.1246 147.294 51.8735C150.866 50.0412 153.089 48.5974 153.986 47.5117C154.542 46.8382 154.898 46.2325 155.042 45.692C155.222 45.9896 155.358 46.3068 155.445 46.6383C155.426 46.6721 155.414 46.7093 155.409 46.7489C155.319 47.5143 154.875 48.2739 154.061 49.0305C153.281 49.7565 151.596 50.8041 149.022 52.1586L148.502 52.4299ZM149.75 52.5358C150.542 52.4912 151.511 52.2851 152.295 51.8956C153.751 51.2029 154.921 49.8983 155.363 48.6411C155.149 48.9251 154.893 49.2055 154.596 49.4823C153.794 50.2278 152.183 51.2414 149.75 52.5358ZM145.592 47.0697L145.459 47.1336C145.878 44.9694 147.827 43.4163 150.283 43.3718C150.309 43.7971 150.16 44.1787 149.829 44.5322C149.293 45.1033 147.872 45.9581 145.592 47.0697Z" fill="#00160A"/>
<path fill-rule="evenodd" clip-rule="evenodd" d="M177.355 36.4501C177.424 36.4571 177.472 36.5123 177.464 36.573C177.464 36.6623 177.399 36.7106 177.312 36.742C177.233 36.77 177.108 36.7592 177.035 36.768C176.235 36.8227 175.607 36.3011 175.33 35.6287C175.065 34.9828 175.135 34.2105 175.618 33.7342C175.673 33.678 175.769 33.6724 175.832 33.7216C175.896 33.7708 176.255 33.8563 176.2 33.9125C175.803 34.3239 175.534 34.5736 175.908 35.5502C176.283 36.5269 177.304 36.4448 177.355 36.4501Z" fill="#E7EAEE"/>
<path fill-rule="evenodd" clip-rule="evenodd" d="M50.0647 43.4426C49.8546 43.3147 49.5673 43.362 49.4231 43.5483C49.2788 43.7347 49.3322 43.9894 49.5423 44.1173C49.7731 44.2579 49.9771 44.3876 50.1571 44.5081C49.9632 44.6449 49.7695 44.8017 49.5683 44.9801L49.1602 45.3476C48.9808 45.5081 48.9821 45.7672 49.1631 45.9263C49.3441 46.0854 49.6363 46.0843 49.8157 45.9238L50.3053 45.4849C50.5045 45.3128 50.6913 45.1689 50.8791 45.0493C51.2964 45.4161 51.4234 45.6851 51.4302 45.9524L51.4303 46.021L51.4326 46.0629C51.4563 46.2692 51.6528 46.4302 51.8917 46.4302C52.1465 46.4302 52.3531 46.247 52.3531 46.021L52.3531 45.9406C52.3445 45.5237 52.1786 45.1272 51.732 44.6741C52.027 44.5962 52.3594 44.5526 52.7625 44.5339C53.017 44.5221 53.2125 44.3296 53.1992 44.1039C53.1859 43.8782 52.9688 43.7048 52.7143 43.7166C52.0145 43.749 51.4706 43.8525 50.9861 44.049C50.7838 43.9023 50.5546 43.7484 50.2957 43.5855L50.0647 43.4426Z" fill="#00160A"/>
<path fill-rule="evenodd" clip-rule="evenodd" d="M119.207 133.109L119.528 133.11C121.317 133.125 122.715 133.268 125.348 133.643C125.65 133.686 125.855 133.938 125.807 134.206C125.758 134.473 125.474 134.655 125.172 134.613L124.309 134.492C122.131 134.195 120.875 134.091 119.207 134.091C113.421 134.091 109.726 137.303 110.351 142.23C110.386 142.5 110.167 142.743 109.863 142.773C109.559 142.804 109.285 142.61 109.251 142.34C108.548 136.799 112.791 133.109 119.207 133.109ZM123.689 135.092L123.635 135.05C123.583 135.01 123.503 135.015 123.459 135.062C123.413 135.108 123.42 135.178 123.472 135.218L123.528 135.26C123.58 135.3 123.659 135.295 123.704 135.248C123.748 135.202 123.743 135.131 123.689 135.092ZM113.655 136.119C113.456 135.977 113.166 136.005 113.006 136.181C112.362 136.893 111.892 137.586 111.599 138.262C111.314 138.92 111.216 140.026 111.291 141.607L111.308 141.941C111.322 142.166 111.539 142.34 111.793 142.328C112.048 142.316 112.243 142.123 112.23 141.898C112.132 140.246 112.215 139.121 112.46 138.556C112.717 137.964 113.138 137.343 113.726 136.694C113.885 136.518 113.854 136.26 113.655 136.119ZM118.691 134.765C118.917 134.661 119.196 134.739 119.313 134.94C119.43 135.141 119.342 135.388 119.115 135.492C118.178 135.922 117.463 136.644 116.964 137.673C116.428 138.777 115.99 139.763 115.649 140.629C115.565 140.842 115.302 140.955 115.062 140.88C114.821 140.806 114.694 140.573 114.778 140.359C115.126 139.474 115.572 138.471 116.116 137.35C116.696 136.153 117.556 135.286 118.691 134.765ZM121.374 134.743C121.206 134.573 120.914 134.556 120.722 134.705C119.952 135.304 119.361 135.848 118.946 136.342C118.535 136.832 118.054 137.565 117.496 138.545C117.382 138.747 117.473 138.993 117.701 139.095C117.928 139.196 118.206 139.115 118.32 138.913C118.856 137.971 119.313 137.275 119.687 136.83C120.057 136.388 120.606 135.884 121.331 135.321C121.522 135.172 121.542 134.913 121.374 134.743ZM119.689 139.364C119.497 139.513 119.206 139.496 119.038 139.326C118.87 139.156 118.889 138.898 119.081 138.749C119.806 138.186 120.354 137.681 120.725 137.24C121.098 136.794 121.556 136.098 122.091 135.156C122.206 134.954 122.483 134.873 122.711 134.975C122.938 135.077 123.03 135.323 122.915 135.525C122.358 136.505 121.876 137.238 121.465 137.728C121.051 138.222 120.459 138.766 119.689 139.364ZM116.195 135.098C115.985 134.97 115.698 135.017 115.553 135.203C114.522 136.527 113.863 137.517 113.572 138.19C113.279 138.865 113.077 139.774 112.96 140.924C112.937 141.149 113.124 141.348 113.378 141.368C113.632 141.389 113.856 141.223 113.879 140.998C113.989 139.917 114.176 139.077 114.433 138.483C114.673 137.93 115.232 137.076 116.105 135.936L116.313 135.668C116.457 135.482 116.405 135.227 116.195 135.098Z" fill="#00160A"/>
<path fill-rule="evenodd" clip-rule="evenodd" d="M107.435 132.685L107.753 133.312L108.478 133.496C108.517 133.506 108.54 133.543 108.529 133.577C108.525 133.588 108.519 133.598 108.51 133.606L107.959 134.092L107.99 134.792C107.992 134.828 107.96 134.858 107.919 134.86C107.905 134.86 107.892 134.857 107.88 134.851L107.256 134.536C107.237 134.526 107.213 134.525 107.192 134.532L106.526 134.767C106.488 134.78 106.445 134.764 106.43 134.73C106.425 134.719 106.423 134.707 106.426 134.695L106.566 134.006L106.097 133.456C106.072 133.427 106.079 133.386 106.111 133.364C106.121 133.358 106.133 133.353 106.145 133.352L106.892 133.259L107.305 132.677C107.327 132.647 107.373 132.637 107.407 132.657C107.42 132.664 107.429 132.674 107.435 132.685Z" fill="#00160A"/>
<path fill-rule="evenodd" clip-rule="evenodd" d="M133.112 44.9564C133.282 45.0899 133.494 45.3308 133.681 45.5915L133.922 45.4966L134.207 45.3884C134.264 45.3652 134.301 45.347 134.312 45.3323C134.345 45.2781 134.421 45.2575 134.483 45.2862C134.543 45.3149 134.567 45.3821 134.534 45.4362C134.512 45.4876 134.352 45.6488 134.055 45.8065C134.001 45.8351 133.941 45.8617 133.877 45.8876C133.987 46.0693 134.073 46.2449 134.113 46.3857C134.174 46.5932 134.126 46.7403 134.045 46.792C133.967 46.8431 133.769 46.8527 133.468 46.6313C133.413 46.5939 133.404 46.5241 133.446 46.4756C133.488 46.4272 133.567 46.4183 133.622 46.4556C133.679 46.4931 133.737 46.5143 133.784 46.5296L133.761 46.4501C133.752 46.4217 133.741 46.3921 133.726 46.3632C133.672 46.2587 133.603 46.1393 133.526 46.0167C133.291 46.0955 133.024 46.1669 132.735 46.2013C132.594 46.2181 132.45 46.2214 132.301 46.2203C132.215 46.2253 132.141 46.1676 132.135 46.0914C132.129 46.0153 132.195 45.9494 132.28 45.9444C132.628 45.9147 132.95 45.8368 133.233 45.7492L133.326 45.7195C133.173 45.5067 133.008 45.3134 132.867 45.2043C132.791 45.1443 132.783 45.0401 132.85 44.9717C132.919 44.9031 133.036 44.8963 133.112 44.9564Z" fill="#00160A"/>
<path fill-rule="evenodd" clip-rule="evenodd" d="M31.4846 100.338C31.0071 100.363 30.2504 100.468 29.633 100.684C29.1049 100.87 29.1526 106.017 30.9678 106.439C32.7737 106.992 34.7363 106.29 34.4756 103.534C34.4709 103.476 34.4176 103.319 34.3565 103.139C34.2671 102.876 34.1609 102.563 34.166 102.441C34.1865 102.008 34.0568 101.643 33.7214 101.412C33.3559 100.724 32.6481 100.278 31.4846 100.338ZM31.2691 105.188C30.3804 104.586 30.3858 101.809 31.3921 101.63C32.0234 102.069 32.6017 102.701 32.806 103.912C32.596 104.577 32.1433 104.96 31.7474 105.294C31.7051 105.33 31.6634 105.365 31.6227 105.4C31.5083 105.341 31.3903 105.269 31.2691 105.188Z" fill="white"/>
<path fill-rule="evenodd" clip-rule="evenodd" d="M30.1777 103.558C30.0931 103.124 30.1436 102.639 30.381 102.123C30.4887 101.889 30.7758 101.7 31.1359 101.574C31.557 101.427 32.073 101.356 32.3987 101.339C33.1921 101.298 33.6746 101.6 33.9235 102.066C34.1521 102.222 34.2404 102.47 34.2263 102.762C34.2204 102.902 34.4291 103.406 34.4371 103.503C34.6139 105.369 33.2754 105.845 32.0441 105.471C31.5796 105.681 31.1299 105.714 30.7892 105.485C30.4836 105.281 30.2464 104.853 30.186 104.101C30.17 103.907 30.1672 103.726 30.1777 103.558ZM32.3456 102.346C31.6468 102.465 31.6343 104.288 32.2491 104.681C32.3329 104.734 32.4146 104.781 32.4938 104.819C32.787 104.581 33.0055 104.388 33.1269 103.991C33.2482 103.595 32.7823 102.633 32.3456 102.346Z" fill="#FFB61D"/>
<path fill-rule="evenodd" clip-rule="evenodd" d="M78.6238 148.976C78.4137 148.848 78.1265 148.895 77.9822 149.082C77.838 149.268 77.8914 149.523 78.1014 149.651C78.3323 149.791 78.5362 149.921 78.7162 150.041C78.5223 150.178 78.3287 150.335 78.1274 150.513L77.7194 150.881C77.5399 151.041 77.5412 151.301 77.7222 151.46C77.9032 151.619 78.1954 151.618 78.3748 151.457L78.8644 151.018C79.0637 150.846 79.2504 150.702 79.4383 150.583C79.8555 150.949 79.9826 151.218 79.9894 151.486L79.9894 151.554L79.9918 151.596C80.0154 151.802 80.2119 151.964 80.4508 151.964C80.7057 151.964 80.9123 151.78 80.9123 151.554L80.9122 151.474C80.9036 151.057 80.7377 150.661 80.2911 150.207C80.5861 150.129 80.9185 150.086 81.3216 150.067C81.5762 150.055 81.7717 149.863 81.7584 149.637C81.7451 149.411 81.528 149.238 81.2735 149.25C80.5736 149.282 80.0298 149.386 79.5452 149.582C79.343 149.436 79.1138 149.282 78.8548 149.119L78.6238 148.976Z" fill="#00160A"/>
<path fill-rule="evenodd" clip-rule="evenodd" d="M78.6238 148.976C78.4137 148.848 78.1265 148.895 77.9822 149.082C77.838 149.268 77.8914 149.523 78.1014 149.651C78.3323 149.791 78.5362 149.921 78.7162 150.041C78.5223 150.178 78.3287 150.335 78.1274 150.513L77.7194 150.881C77.5399 151.041 77.5412 151.301 77.7222 151.46C77.9032 151.619 78.1954 151.618 78.3748 151.457L78.8644 151.018C79.0637 150.846 79.2504 150.702 79.4383 150.583C79.8555 150.949 79.9826 151.218 79.9894 151.486L79.9894 151.554L79.9918 151.596C80.0154 151.802 80.2119 151.964 80.4508 151.964C80.7057 151.964 80.9123 151.78 80.9123 151.554L80.9122 151.474C80.9036 151.057 80.7377 150.661 80.2911 150.207C80.5861 150.129 80.9185 150.086 81.3216 150.067C81.5762 150.055 81.7717 149.863 81.7584 149.637C81.7451 149.411 81.528 149.238 81.2735 149.25C80.5736 149.282 80.0298 149.386 79.5452 149.582C79.343 149.436 79.1138 149.282 78.8548 149.119L78.6238 148.976Z" fill="#00160A"/>
<path fill-rule="evenodd" clip-rule="evenodd" d="M94.3945 137.765L94.7124 138.392L95.4373 138.576C95.4765 138.586 95.4991 138.623 95.4879 138.657C95.4844 138.668 95.4779 138.678 95.469 138.686L94.9183 139.172L94.9491 139.872C94.9507 139.908 94.919 139.938 94.8783 139.94C94.8645 139.94 94.8508 139.937 94.8388 139.931L94.2153 139.616C94.1959 139.606 94.1724 139.605 94.1516 139.612L93.4847 139.847C93.4468 139.861 93.4039 139.844 93.3889 139.81C93.3838 139.799 93.3824 139.787 93.3848 139.775L93.5252 139.086L93.0561 138.536C93.0315 138.507 93.0379 138.466 93.0704 138.444C93.0804 138.438 93.0922 138.433 93.1047 138.432L93.8514 138.339L94.2647 137.757C94.2864 137.727 94.332 137.718 94.3665 137.737C94.3788 137.744 94.3885 137.754 94.3945 137.765Z" fill="#00160A"/>
<path fill-rule="evenodd" clip-rule="evenodd" d="M54.3901 133.46L54.9305 133.952L55.6828 133.906C55.7235 133.903 55.7588 133.93 55.7616 133.966C55.7625 133.977 55.7602 133.989 55.7548 133.999L55.4248 134.623L55.7237 135.271C55.7391 135.304 55.721 135.342 55.6833 135.356C55.6705 135.361 55.6565 135.362 55.6429 135.36L54.9356 135.253C54.9135 135.25 54.8909 135.256 54.8741 135.269L54.3381 135.692C54.3076 135.716 54.261 135.713 54.2339 135.686C54.2247 135.677 54.2186 135.666 54.2163 135.654L54.0824 134.964L53.4297 134.59C53.3955 134.57 53.3856 134.53 53.4078 134.499C53.4146 134.49 53.424 134.482 53.4351 134.477L54.1009 134.163L54.265 133.491C54.2736 133.456 54.3129 133.434 54.3528 133.441C54.367 133.444 54.3799 133.45 54.3901 133.46Z" fill="#00160A"/>
<path fill-rule="evenodd" clip-rule="evenodd" d="M45.95 88.5854L46.268 89.2121L46.9928 89.3966C47.032 89.4065 47.0547 89.4428 47.0434 89.4776C47.04 89.4883 47.0335 89.498 47.0246 89.5059L46.4738 89.9921L46.5047 90.6918C46.5063 90.7279 46.4745 90.7584 46.4338 90.7598C46.42 90.7603 46.4064 90.7573 46.3944 90.7513L45.7709 90.4364C45.7514 90.4265 45.7279 90.4251 45.7071 90.4324L45.0403 90.6673C45.0024 90.6806 44.9594 90.6642 44.9444 90.6306C44.9393 90.6192 44.9379 90.6068 44.9404 90.5948L45.0807 89.9057L44.6117 89.3563C44.587 89.3274 44.5934 89.2864 44.6259 89.2646C44.636 89.2578 44.6478 89.2535 44.6602 89.2519L45.407 89.1587L45.8202 88.5774C45.842 88.5468 45.8876 88.5376 45.922 88.5569C45.9343 88.5638 45.944 88.5737 45.95 88.5854Z" fill="#00160A"/>
<path fill-rule="evenodd" clip-rule="evenodd" d="M45.8761 89.2096L46.0112 89.4758L46.3191 89.5542C46.3357 89.5584 46.3453 89.5738 46.3405 89.5886C46.3391 89.5931 46.3363 89.5972 46.3325 89.6006L46.0986 89.8071L46.1117 90.1043C46.1124 90.1196 46.0989 90.1326 46.0816 90.1332C46.0757 90.1334 46.0699 90.1321 46.0649 90.1295L45.8 89.9958C45.7917 89.9916 45.7818 89.991 45.7729 89.9941L45.4897 90.0939C45.4736 90.0995 45.4554 90.0926 45.449 90.0783C45.4468 90.0735 45.4462 90.0682 45.4472 90.0631L45.5069 89.7704L45.3076 89.537C45.2972 89.5248 45.2999 89.5074 45.3137 89.4981C45.318 89.4952 45.323 89.4934 45.3283 89.4927L45.6455 89.4531L45.821 89.2062C45.8302 89.1932 45.8496 89.1893 45.8642 89.1975C45.8694 89.2004 45.8736 89.2046 45.8761 89.2096Z" fill="#E7EAEE"/>
<path fill-rule="evenodd" clip-rule="evenodd" d="M8.14862 116.079L8.4666 116.705L9.19147 116.89C9.23067 116.9 9.25332 116.936 9.24207 116.971C9.2386 116.981 9.2321 116.991 9.22319 116.999L8.67246 117.485L8.70331 118.185C8.7049 118.221 8.67316 118.252 8.63242 118.253C8.61864 118.253 8.60498 118.25 8.593 118.244L7.96951 117.93C7.95002 117.92 7.92655 117.918 7.90572 117.926L7.23888 118.16C7.20098 118.174 7.15806 118.157 7.14301 118.124C7.13792 118.112 7.13652 118.1 7.13897 118.088L7.27933 117.399L6.81026 116.849C6.78565 116.821 6.79205 116.78 6.82456 116.758C6.83458 116.751 6.84638 116.747 6.85883 116.745L7.6056 116.652L8.01883 116.071C8.04058 116.04 8.08617 116.031 8.12066 116.05C8.13294 116.057 8.14266 116.067 8.14862 116.079Z" fill="#00160A"/>
<path fill-rule="evenodd" clip-rule="evenodd" d="M40.0976 59.8108L40.3285 59.9537C40.5877 60.1168 41.5554 60.9255 41.7578 61.0723C42.2417 60.8754 42.7856 60.7719 43.4855 60.7395C43.74 60.7277 43.9571 60.9011 43.9704 61.1268C43.9837 61.3525 43.7882 61.545 43.5337 61.5568C43.1304 61.5755 42.7979 61.6191 42.5028 61.6971C42.9499 62.1504 43.1157 62.5467 43.1243 62.9634L43.1243 63.0439C43.1243 63.2699 42.9177 63.4531 42.6629 63.4531C42.424 63.4531 42.2275 63.2921 42.2038 63.0857L42.2014 63.0439L42.2014 62.9753C42.1946 62.708 42.0676 62.439 41.6504 62.0723C41.4625 62.1918 41.2757 62.3357 41.0765 62.5078L40.5868 62.9467C40.4074 63.1072 40.1153 63.1083 39.9343 62.9492C39.7533 62.7901 39.752 62.531 39.9314 62.3705L40.3395 62.003C40.5407 61.8246 40.7343 61.6679 40.9282 61.5311C40.5877 60.8418 39.3117 60.1028 39.456 59.9165C39.6002 59.7302 39.8875 59.6829 40.0976 59.8108Z" fill="#00160A"/>
<path fill-rule="evenodd" clip-rule="evenodd" d="M129.129 107.004L129.757 107.406L130.489 107.244C130.529 107.235 130.569 107.257 130.579 107.292C130.582 107.302 130.582 107.314 130.578 107.325L130.375 107.99L130.797 108.582C130.818 108.613 130.808 108.653 130.774 108.672C130.762 108.679 130.748 108.682 130.735 108.683L130.017 108.686C129.995 108.686 129.974 108.696 129.96 108.711L129.515 109.21C129.489 109.239 129.443 109.243 129.411 109.221C129.4 109.213 129.392 109.203 129.387 109.192L129.12 108.533L128.404 108.265C128.367 108.251 128.349 108.212 128.365 108.179C128.37 108.169 128.378 108.16 128.388 108.153L128.982 107.741L129.012 107.054C129.013 107.018 129.048 106.99 129.088 106.992C129.103 106.992 129.117 106.996 129.129 107.004Z" fill="#00160A"/>
<path fill-rule="evenodd" clip-rule="evenodd" d="M136.35 81.3574L136.541 82.0235L137.219 82.3168C137.255 82.3327 137.27 82.3719 137.253 82.4044C137.247 82.4144 137.239 82.423 137.228 82.4294L136.591 82.8234L136.484 83.5172C136.479 83.553 136.442 83.5781 136.401 83.5732C136.387 83.5716 136.375 83.5666 136.364 83.5588L135.812 83.1527C135.794 83.14 135.772 83.1349 135.75 83.1389L135.047 83.2676C135.007 83.2749 134.968 83.2521 134.96 83.2167C134.957 83.2047 134.958 83.1923 134.963 83.1808L135.236 82.5238L134.881 81.9105C134.863 81.8783 134.877 81.8388 134.914 81.8224C134.925 81.8173 134.937 81.8148 134.95 81.8152L135.703 81.8384L136.224 81.3295C136.252 81.3028 136.298 81.3008 136.329 81.3251C136.339 81.3337 136.347 81.345 136.35 81.3574Z" fill="#00160A"/>
<path fill-rule="evenodd" clip-rule="evenodd" d="M119.905 54.5505L120.095 55.2165L120.773 55.5099C120.809 55.5257 120.825 55.5649 120.807 55.5974C120.801 55.6074 120.793 55.616 120.783 55.6224L120.145 56.0164L120.038 56.7102C120.033 56.7461 119.996 56.7711 119.955 56.7663C119.942 56.7646 119.929 56.7596 119.918 56.7518L119.366 56.3457C119.349 56.333 119.326 56.3279 119.304 56.332L118.601 56.4606C118.561 56.4679 118.522 56.4451 118.514 56.4097C118.511 56.3977 118.512 56.3853 118.517 56.3738L118.79 55.7168L118.436 55.1035C118.417 55.0713 118.431 55.0319 118.468 55.0154C118.479 55.0103 118.491 55.0078 118.504 55.0082L119.258 55.0314L119.778 54.5226C119.806 54.4958 119.852 54.4938 119.883 54.5181C119.893 54.5267 119.901 54.538 119.905 54.5505Z" fill="#00160A"/>
<path fill-rule="evenodd" clip-rule="evenodd" d="M168.49 61.0769L168.771 61.0547C169.087 61.0319 169.375 61.0191 169.636 61.0162C169.864 60.5895 170.206 60.2002 170.718 59.7764C170.905 59.6223 171.197 59.6314 171.371 59.7967C171.544 59.962 171.534 60.2209 171.348 60.375C171.052 60.6192 170.829 60.8422 170.66 61.0701C171.331 61.1625 171.745 61.3717 172.054 61.686L172.112 61.7476C172.276 61.9207 172.25 62.1788 172.055 62.3241C171.872 62.4603 171.605 62.4489 171.437 62.3043L171.405 62.2736L171.355 62.2211C171.156 62.0202 170.864 61.8865 170.279 61.8434C170.221 62.0421 170.183 62.2588 170.155 62.5042L170.098 63.1195C170.077 63.3447 169.854 63.5122 169.6 63.4934C169.346 63.4747 169.157 63.277 169.178 63.0518L169.224 62.5376C169.249 62.2862 169.284 62.0558 169.333 61.8405C169.108 61.8507 168.858 61.8676 168.579 61.8915C168.325 61.9133 168.1 61.7485 168.075 61.5236C168.051 61.2987 168.236 61.0987 168.49 61.0769Z" fill="#00160A"/>
<path fill-rule="evenodd" clip-rule="evenodd" d="M131.228 89.3243C131.145 89.5114 130.962 89.7704 130.75 90.0155L130.933 90.1837L131.145 90.384L131.192 90.4242C131.213 90.4403 131.229 90.4502 131.24 90.4528C131.309 90.4617 131.357 90.5177 131.348 90.579C131.338 90.6388 131.275 90.6821 131.206 90.6732C131.144 90.672 130.919 90.5939 130.65 90.4003C130.601 90.3653 130.553 90.3247 130.503 90.2804C130.348 90.4338 130.192 90.5656 130.056 90.6474C129.857 90.7693 129.685 90.779 129.602 90.7297C129.521 90.6816 129.444 90.5203 129.575 90.1939C129.596 90.135 129.667 90.1038 129.733 90.1223C129.798 90.1407 129.835 90.2029 129.814 90.2619C129.794 90.3223 129.791 90.3777 129.791 90.4219L129.867 90.3757C129.894 90.3586 129.922 90.3393 129.947 90.3167C130.04 90.236 130.143 90.1381 130.246 90.032C130.082 89.863 129.915 89.6644 129.78 89.4354C129.714 89.3237 129.661 89.2052 129.612 89.0805C129.577 89.0108 129.613 88.929 129.691 88.8982C129.77 88.8675 129.862 88.8994 129.897 88.969C130.047 89.2487 130.24 89.4899 130.43 89.6963L130.493 89.7637C130.666 89.563 130.815 89.3599 130.882 89.2051C130.919 89.1209 131.027 89.0788 131.122 89.1111C131.219 89.1448 131.266 89.24 131.228 89.3243Z" fill="#E7EAEE"/>
<path fill-rule="evenodd" clip-rule="evenodd" d="M126.723 5.92719C127.004 5.88376 127.272 6.0507 127.321 6.30006C127.37 6.54942 127.182 6.78678 126.9 6.83021C125.563 7.0368 123.953 7.74571 122.563 8.88753C120.757 10.3702 119.425 12.4628 118.768 15.1943C118.238 17.3951 118.725 20.2926 120.11 22.71C121.685 25.4603 124.217 27.3303 127.467 27.8566C130.803 28.397 133.626 28.0614 136.778 27.0676L137.068 26.9741C137.16 26.9432 137.325 26.8869 137.531 26.8163C138.29 26.5566 139.617 26.1027 139.997 26.0006C141.017 25.7273 141.712 25.7502 142.216 26.2265C142.411 26.4111 142.401 26.7011 142.193 26.8744C141.998 27.0367 141.698 27.0388 141.5 26.8863L141.462 26.8538C141.313 26.7132 141.006 26.697 140.387 26.8543L140.297 26.878C139.961 26.968 138.733 27.388 137.967 27.6499L137.967 27.65C137.67 27.7515 137.442 27.8292 137.364 27.8547C133.959 28.9569 130.903 29.345 127.281 28.7583C123.692 28.1769 120.901 26.1164 119.188 23.1251C117.699 20.5255 117.176 17.415 117.757 15.003C118.459 12.0876 119.898 9.82669 121.861 8.21496C123.397 6.95333 125.189 6.16417 126.723 5.92719ZM130.218 8.14131C130.498 8.09266 130.77 8.25459 130.825 8.50299C130.88 8.75139 130.697 8.99219 130.417 9.04084C126.228 9.76832 122.86 12.6055 121.883 16.3583C121.552 17.6284 121.652 18.6611 121.976 19.0551L122.019 19.1045L122.023 19.1114L122.029 19.1073C122.145 19.0143 122.281 18.7767 122.386 18.4085L122.408 18.3276C123.413 14.4679 126.731 11.4803 130.97 10.4769C131.246 10.4116 131.529 10.557 131.602 10.8015C131.676 11.0461 131.512 11.2973 131.236 11.3625C127.418 12.2665 124.418 14.9325 123.455 18.3873L123.415 18.5338C123.061 19.895 122.044 20.5448 121.219 19.6832C120.616 19.0529 120.468 17.7156 120.875 16.1521C121.945 12.0438 125.633 8.93766 130.218 8.14131ZM136.434 13.1718C136.414 12.9193 136.166 12.7292 135.882 12.7472C130.852 13.0655 126.44 15.9627 124.685 20.2388C124.019 21.8614 123.98 23.3044 124.525 24.0403C125.256 25.0274 126.407 24.4675 126.98 23.0698L127.041 22.9264C128.593 19.3076 132.23 16.78 136.488 16.253C136.77 16.218 136.967 15.9864 136.928 15.7357C136.889 15.485 136.627 15.3102 136.345 15.3452C131.656 15.9256 127.658 18.739 126.009 22.7563L125.973 22.8422C125.789 23.2603 125.589 23.5124 125.437 23.5864L125.43 23.5904L125.427 23.5925C125.426 23.5935 125.425 23.5941 125.425 23.594C125.424 23.5938 125.423 23.5925 125.422 23.5895C125.418 23.5828 125.411 23.5673 125.389 23.537L125.361 23.4971C125.061 23.0255 125.107 21.8909 125.657 20.5523C127.271 16.619 131.328 13.9543 135.955 13.6615C136.24 13.6435 136.454 13.4242 136.434 13.1718ZM138.685 17.6272C138.97 17.6091 139.217 17.7992 139.237 18.0517C139.257 18.3042 139.043 18.5234 138.758 18.5415C135.514 18.7467 132.67 20.615 131.538 23.3727C131.202 24.1902 131.14 24.8892 131.26 25.2431L131.275 25.2826L131.298 25.2534C131.355 25.1758 131.42 25.0643 131.484 24.9197L131.511 24.8557C132.707 21.9428 135.605 19.9028 139.005 19.482C139.288 19.447 139.549 19.6219 139.589 19.8725C139.628 20.1232 139.431 20.3548 139.148 20.3898C136.174 20.758 133.632 22.5182 132.537 25.0403L132.482 25.1692C132.039 26.2494 131.08 26.7161 130.467 25.889C130.047 25.3222 130.077 24.2522 130.567 23.0592C131.839 19.9587 135.038 17.8579 138.685 17.6272ZM141.409 21.3198C141.388 21.0673 141.141 20.8773 140.856 20.8953C138.414 21.0498 136.272 22.4567 135.419 24.5332C135.083 25.3518 135.063 26.0969 135.374 26.5164C135.883 27.2042 136.675 26.8188 137.005 26.0151L137.05 25.9096C137.744 24.3371 139.335 23.2408 141.196 23.0106C141.478 22.9756 141.676 22.744 141.636 22.4933C141.597 22.2426 141.335 22.0678 141.053 22.1028L140.922 22.1202C138.919 22.4063 137.192 23.5334 136.296 25.1555L136.264 25.2133L136.284 25.1475C136.312 25.0518 136.348 24.9511 136.391 24.8467C137.102 23.1131 138.891 21.9386 140.93 21.8096C141.215 21.7916 141.429 21.5723 141.409 21.3198Z" fill="#00160A"/>
<path fill-rule="evenodd" clip-rule="evenodd" d="M138.685 17.6272C138.97 17.6091 139.217 17.7992 139.237 18.0517C139.258 18.3042 139.043 18.5234 138.759 18.5414C135.514 18.7467 132.67 20.615 131.538 23.3727C131.202 24.1902 131.14 24.8891 131.26 25.2431L131.275 25.2826L131.298 25.2534C131.355 25.1758 131.42 25.0643 131.484 24.9197L131.511 24.8557C132.707 21.9428 135.606 19.9028 139.005 19.482C139.288 19.447 139.549 19.6218 139.589 19.8725C139.628 20.1232 139.431 20.3548 139.148 20.3898C136.174 20.758 133.632 22.5182 132.537 25.0403L132.483 25.1692C132.039 26.2494 131.08 26.7161 130.468 25.889C130.048 25.3221 130.077 24.2522 130.567 23.0592C131.839 19.9587 135.038 17.8579 138.685 17.6272Z" fill="#00160A"/>
<path d="M106.498 77.2979C117.333 72.8036 126.392 70.4297 132.032 69.9938C133.759 69.8603 134.543 70.7048 134.105 72.0783C133.78 73.0982 132.791 74.4977 131.275 76.155C128.633 79.0443 125.148 81.5166 121.678 83.8161C127.229 79.2724 128.645 77.3716 130.357 75.4998L130.626 75.202C131.896 73.7787 132.716 72.5894 132.969 71.7959L133.005 71.6754C133.163 71.1026 132.98 70.9671 132.135 71.0324C126.622 71.4585 117.598 73.8371 106.803 78.3253C95.9902 82.8208 95.6809 81.7849 106.498 77.2979Z" fill="white"/>
<path d="M56.9445 62.7592L57.0237 62.9264C57.5726 64.0805 58.143 65.2235 58.7904 66.4701L59.0421 66.9537C58.9596 67.0029 58.8511 67.0551 58.7318 67.1013C58.5604 67.1677 58.3865 67.2142 58.2557 67.2299L58.214 67.2336L58.1511 67.1667C57.6619 66.6325 57.094 65.725 56.6837 64.8225C56.4652 64.3418 56.3095 63.9009 56.2393 63.5622C56.2108 63.4242 56.1975 63.3082 56.1987 63.2203L56.2017 63.1623C56.2027 63.1482 56.2027 63.1409 56.1988 63.1399L56.2143 63.1306C56.3016 63.0772 56.5249 62.9614 56.8564 62.8015L56.9445 62.7592Z" fill="white"/>
<path fill-rule="evenodd" clip-rule="evenodd" d="M70.6414 58.5782C70.9805 58.21 71.4203 58.2649 71.9773 58.5645L72.1203 58.6446L72.5207 58.8799C72.6327 58.9435 72.6812 58.9656 72.7465 58.9886C72.8981 59.0421 72.972 59.1944 72.9117 59.3288C72.8513 59.4632 72.6796 59.5287 72.5281 59.4752L72.4741 59.4555C72.3717 59.4166 72.2944 59.3762 72.0869 59.2542L71.7996 59.0844C71.7523 59.057 71.7113 59.0341 71.6709 59.0124C71.3378 58.8332 71.1865 58.8143 71.0988 58.9096C71.0434 58.9696 71.0571 59.0976 71.1669 59.3599L71.2874 59.6352C71.5269 60.199 71.5283 60.4511 71.1016 60.6663C70.7343 60.8516 70.546 60.765 70.0184 60.3066L69.8904 60.1942C69.5526 59.895 69.3755 59.7909 69.2614 59.8123C69.2235 59.8194 69.1793 59.8432 69.1254 59.8942C69.0621 59.9541 69.0442 60.1454 69.083 60.4848L69.1425 60.9281C69.2119 61.47 69.1839 61.6104 68.9317 61.7601C68.5843 61.9662 68.1221 61.7332 67.2654 61.051C67.144 60.9543 67.134 60.7887 67.243 60.6811C67.3519 60.5735 67.5387 60.5646 67.66 60.6613C68.0263 60.9529 68.3028 61.1429 68.496 61.2402L68.5392 61.2611L68.5754 61.2772L68.5763 61.2444L68.5739 61.1659C68.5701 61.1016 68.5611 61.0239 68.543 60.8919L68.5054 60.6199C68.4336 60.0682 68.456 59.7614 68.6946 59.5359C68.8271 59.4106 68.9758 59.3305 69.1392 59.2999C69.5186 59.2287 69.7881 59.3724 70.2356 59.7603L70.4615 59.9574C70.7051 60.1651 70.7954 60.2182 70.8096 60.211C70.865 60.1831 70.8566 60.0964 70.707 59.7557L70.6414 59.6081C70.4328 59.1326 70.393 58.8478 70.6414 58.5782Z" fill="#00160A"/>
<path fill-rule="evenodd" clip-rule="evenodd" d="M102.883 15.951L102.602 15.9732C102.349 15.9949 102.163 16.1949 102.188 16.4199C102.202 16.5557 102.29 16.6696 102.414 16.7337L102.365 16.7646C102.157 16.8951 102.107 17.1504 102.254 17.335C102.402 17.5195 102.69 17.5634 102.898 17.433L103.372 17.1348C103.359 17.2312 103.347 17.3308 103.337 17.4339L103.29 17.9481C103.269 18.1733 103.458 18.371 103.712 18.3897C103.966 18.4084 104.189 18.241 104.21 18.0158L104.267 17.4005C104.282 17.2691 104.3 17.1459 104.322 17.0293C104.484 17.3016 104.516 17.5114 104.482 17.7098L104.469 17.7773L104.463 17.8189C104.446 18.0257 104.608 18.2146 104.843 18.2514C105.094 18.2906 105.333 18.142 105.378 17.9194L105.393 17.8402C105.442 17.5639 105.42 17.2857 105.294 16.9769C105.36 17.0191 105.417 17.066 105.468 17.1174L105.517 17.1699L105.55 17.2006C105.717 17.3452 105.984 17.3565 106.168 17.2204C106.363 17.0751 106.388 16.817 106.224 16.6438L106.166 16.5822C106.145 16.5612 106.124 16.5405 106.102 16.5204C106.343 16.5325 106.556 16.377 106.586 16.1617C106.617 15.9374 106.437 15.7332 106.184 15.7057C105.75 15.6583 105.369 15.6476 105.02 15.6754C105.145 15.5444 105.291 15.4113 105.46 15.2713C105.646 15.1172 105.657 14.8583 105.483 14.693C105.309 14.5276 105.017 14.5186 104.831 14.6727C104.518 14.9313 104.269 15.177 104.07 15.4263C103.993 15.3541 103.913 15.2801 103.828 15.2042L103.629 15.0279C103.447 14.8695 103.155 14.8719 102.976 15.0332C102.798 15.1944 102.8 15.4535 102.982 15.6118C103.108 15.7218 103.225 15.8258 103.332 15.9244C103.189 15.9308 103.04 15.9397 102.883 15.951Z" fill="#00160A"/>
<path fill-rule="evenodd" clip-rule="evenodd" d="M85.1262 18.7805C85.0196 18.6805 84.8432 18.6863 84.7323 18.7934C84.6213 18.9005 84.6177 19.0683 84.7243 19.1683C84.8238 19.2615 84.9128 19.3481 84.9924 19.4288C84.8147 19.5 84.636 19.5913 84.4442 19.7035L84.1533 19.8766C84.0255 19.9521 83.9947 20.0994 84.0845 20.2055C84.1742 20.3117 84.3506 20.3366 84.4784 20.2611L84.8272 20.0546C85.0096 19.9508 85.1737 19.8719 85.3381 19.8157C85.5762 20.1224 85.6231 20.3208 85.5877 20.506L85.5783 20.55L85.5739 20.577C85.5595 20.7113 85.6535 20.8313 85.7948 20.8517C85.9455 20.8735 86.0929 20.7737 86.124 20.6289L86.1351 20.5773C86.1877 20.3083 86.1437 20.039 85.9402 19.7088C86.0861 19.7039 86.245 19.711 86.4253 19.7291C86.5802 19.7447 86.7217 19.6524 86.7412 19.523C86.7607 19.3937 86.6508 19.2762 86.4959 19.2607C86.1533 19.2263 85.866 19.2268 85.6021 19.2644C85.4994 19.1483 85.3803 19.0246 85.2431 18.8918L85.1262 18.7805Z" fill="#E7EAEE"/>
<path fill-rule="evenodd" clip-rule="evenodd" d="M25.6326 87.0054L25.9505 87.632L26.6754 87.8165C26.7146 87.8265 26.7373 87.8627 26.726 87.8975C26.7225 87.9082 26.716 87.918 26.7071 87.9258L26.1564 88.412L26.1872 89.1117C26.1888 89.1479 26.1571 89.1783 26.1164 89.1797C26.1026 89.1802 26.0889 89.1772 26.0769 89.1712L25.4534 88.8563C25.434 88.8464 25.4105 88.845 25.3897 88.8523L24.7228 89.0872C24.6849 89.1006 24.642 89.0841 24.627 89.0505C24.6219 89.0392 24.6205 89.0268 24.6229 89.0147L24.7633 88.3256L24.2942 87.7762C24.2696 87.7474 24.276 87.7063 24.3085 87.6845C24.3185 87.6777 24.3303 87.6734 24.3428 87.6718L25.0895 87.5786L25.5028 86.9973C25.5245 86.9667 25.5701 86.9576 25.6046 86.9768C25.6169 86.9837 25.6266 86.9936 25.6326 87.0054Z" fill="#00160A"/>
<path fill-rule="evenodd" clip-rule="evenodd" d="M29.8726 52.2254L30.1905 52.852L30.9154 53.0365C30.9546 53.0465 30.9773 53.0827 30.966 53.1175C30.9625 53.1282 30.9561 53.1379 30.9471 53.1458L30.3964 53.632L30.4273 54.3317C30.4288 54.3678 30.3971 54.3983 30.3564 54.3997C30.3426 54.4002 30.3289 54.3972 30.3169 54.3912L29.6935 54.0763C29.674 54.0664 29.6505 54.065 29.6297 54.0723L28.9628 54.3072C28.9249 54.3205 28.882 54.3041 28.8669 54.2705C28.8619 54.2591 28.8605 54.2467 28.8629 54.2347L29.0033 53.5456L28.5342 52.9962C28.5096 52.9674 28.516 52.9263 28.5485 52.9045C28.5585 52.8977 28.5703 52.8934 28.5828 52.8918L29.3295 52.7986L29.7428 52.2173C29.7645 52.1867 29.8101 52.1775 29.8446 52.1968C29.8569 52.2037 29.8666 52.2136 29.8726 52.2254Z" fill="#00160A"/>
<path d="M39.4768 107.599C39.7137 107.447 40.0451 107.493 40.2171 107.703C40.3891 107.913 32.8908 113.329 29.9821 115.811L29.644 116.102C27.9826 117.544 26.7576 118.792 26.0672 119.779C25.3355 120.825 25.2886 121.393 25.7609 121.625C27.5531 122.505 30.1298 122.935 33.8202 122.392L34.1995 122.335C35.6042 122.117 46.1712 120.073 46.0039 120.127L45.9389 120.145C45.6057 120.223 41.303 121.543 39.818 121.878L39.6385 121.918C37.3682 122.424 35.5917 122.772 33.9935 123.006C30.0882 123.58 27.298 123.455 25.2471 122.447C24.0637 121.865 24.1579 120.725 25.1665 119.283C25.9597 118.15 27.355 116.748 29.2471 115.134C32.1948 112.619 36.3407 109.619 39.4768 107.599Z" fill="white"/>
</svg>
