<svg width="259" height="228" viewBox="0 0 259 228" fill="none" xmlns="http://www.w3.org/2000/svg">
<path fill-rule="evenodd" clip-rule="evenodd" d="M151.677 228C211.168 228 219.601 201.484 228.622 196.611C237.642 191.739 232.034 181.96 237.95 174.585C247.4 162.804 253.127 168.875 256.255 153.592C259.382 138.309 253.696 133.985 253.696 120.34C253.696 93.0022 266.768 80.0613 250.075 65.7573C233.382 51.4538 205.507 53.1414 177.937 53.1414C126.765 53.1414 96.1091 -17.1387 27.8576 3.946C4.33691 11.2127 6.93644 21.1145 12.1047 56.1092C14.349 71.305 -2.59622 90.6256 0.343823 107.895C5.71349 139.434 19.8951 135.156 46.6524 156.451C51.1413 160.023 57.6885 159.986 62.5822 163.65C70.7869 169.793 71.3142 179.345 86.6526 185.787C111.385 196.176 109.287 228 151.677 228Z" fill="url(#paint0_linear)"/>
<path d="M38 161.087C46.2122 161.087 52.8696 154.615 52.8696 146.63C52.8696 138.646 46.2122 132.174 38 132.174C29.7878 132.174 23.1304 138.646 23.1304 146.63C23.1304 154.615 29.7878 161.087 38 161.087Z" fill="white"/>
<path fill-rule="evenodd" clip-rule="evenodd" d="M31.7393 95.7696C29.1672 89.3541 31.4143 85.5105 32.8544 80.4925C34.0573 76.3013 43.4655 69.4926 47.7952 76.5918C49.069 78.6805 48.5578 80.6546 51.3418 82.4901C58.0813 86.9337 54.4047 77.7152 54.6553 75.3847C54.7776 74.248 53.8159 71.6261 54.1737 70.5292C54.5497 69.3779 56.5521 67.7426 56.5521 65.3563C56.5521 62.9704 52.4791 62.0511 51.3418 61.4649C41.238 56.2552 34.8124 47.553 38.0146 43.1368C42.4763 36.9835 59.9613 46.6647 65.2154 47.553C65.2832 47.5645 66.2214 42.6728 66.988 41.5524C68.5213 39.3114 70.2159 37.1358 72.2377 35.3216C73.1431 34.509 74.3704 34.0073 75.5773 33.8448C79.1878 33.3582 82.8816 32.9592 86.4983 33.3998C87.7762 33.5557 95.3869 24.7587 98.3545 21.9212C121.122 0.150281 166.763 26.6806 141.885 62.7309C137.312 69.3567 131.465 71.4636 130.71 73.8056C129.032 79.0073 139.592 78.3232 144.065 78.8789C151.706 79.8283 155.473 83.7486 150.729 90.4678C147.774 94.6537 130.437 94.4403 122.844 91.4132C120.025 90.2898 116.542 85.3772 113.878 89.4072C112.042 92.1837 104.886 98.074 97.2088 101.406C93.7437 102.91 89.7967 102.004 86.8397 103.347C82.6777 105.238 70.3901 113.176 65.2154 113.174C60.0034 113.172 53.259 106.908 52.4791 106.497C51.2895 105.871 42.0897 104.076 37.5446 97.0715C36.1705 94.9535 32.6811 98.1183 31.7393 95.7696Z" fill="white"/>
<path d="M120.609 60.3043C121.521 60.3043 122.261 59.5646 122.261 58.6522C122.261 57.7397 121.521 57 120.609 57C119.696 57 118.957 57.7397 118.957 58.6522C118.957 59.5646 119.696 60.3043 120.609 60.3043Z" fill="#FFB61D"/>
<path d="M108.63 57C109.315 57 109.87 56.2603 109.87 55.3478C109.87 54.4354 109.315 53.6957 108.63 53.6957C107.946 53.6957 107.391 54.4354 107.391 55.3478C107.391 56.2603 107.946 57 108.63 57Z" fill="#FFB61D"/>
<path d="M221.804 75.1739C233.438 75.1739 242.87 65.7427 242.87 54.1087C242.87 42.4747 233.438 33.0435 221.804 33.0435C210.17 33.0435 200.739 42.4747 200.739 54.1087C200.739 65.7427 210.17 75.1739 221.804 75.1739Z" fill="white"/>
<path d="M156.13 225.522C189.892 225.522 217.261 202.221 217.261 173.478C217.261 144.735 189.892 121.435 156.13 121.435C122.369 121.435 95 144.735 95 173.478C95 202.221 122.369 225.522 156.13 225.522Z" fill="white"/>
<path fill-rule="evenodd" clip-rule="evenodd" d="M103.783 202.261L104.47 202.76C102.919 204.154 100.587 202.42 99.2791 200.796C97.1762 198.184 95.0422 195.408 94.4023 192.114C94.0382 190.239 94.1837 188.308 94.3309 186.404L94.9243 178.728C95.1868 175.326 95.4506 171.918 96.0382 168.558C97.6289 159.463 101.633 150.802 107.529 143.705L107.588 143.634C108.629 142.381 109.766 141.013 109.747 139.389C109.704 135.953 111.679 132.741 114.273 130.492C116.866 128.243 120.042 126.799 123.169 125.386C124.585 124.746 126.435 124.172 127.533 125.274C129.791 127.541 133.56 126.097 136.542 124.946C140.204 123.533 144.116 122.771 148.04 122.708C148.154 122.706 148.269 122.705 148.385 122.703C150.741 122.669 153.392 122.631 154.83 120.803C155.745 119.638 157.495 119.706 158.964 119.882L169.065 121.092C169.837 121.185 170.762 121.396 171.006 122.135C171.658 124.119 173.96 124.928 175.956 125.531C183.051 127.674 189.986 130.584 196.01 134.909C202.034 139.234 207.124 145.052 209.826 151.965C205.434 145.951 200.928 139.823 194.832 135.552C193.088 134.329 191.233 133.274 189.349 132.279C184.904 129.932 180.279 127.908 175.473 126.439C153.164 119.617 127.358 125.944 110.715 142.316C108.302 144.69 106.04 147.305 104.671 150.403L106.479 150.965C103.613 152.248 101.485 155.059 101.025 158.17C102.178 156.191 103.821 154.502 105.766 153.296C105.209 155.159 103.762 156.656 102.342 158.124C100.534 159.994 98.7713 161.816 98.958 164.287C99.817 162.029 101.98 160.325 104.373 160.021C100.578 163.736 96.5052 168.096 96.6263 173.411C98.0108 170.342 100.361 167.719 103.258 166.011L99.0875 171.626C97.5105 173.75 95.8493 176.176 96.2099 178.798C97.5819 176.331 99.5438 174.196 101.884 172.622C100.758 175.19 99.1482 177.545 97.166 179.526C99.0507 179.298 100.866 178.516 102.327 177.302C101.715 178.159 101.162 179.126 101.142 180.18C101.121 181.234 101.803 182.364 102.844 182.516C103.159 181.81 104.148 181.512 104.8 181.926C102.824 183.852 102.803 187.421 104.757 189.37C104.931 188.454 105.702 187.682 106.616 187.509C105.159 190.062 104.897 193.268 105.92 196.024C106.23 194.462 107.095 193.017 108.324 192.008C107.615 195.712 106.049 199.249 103.783 202.261ZM102.919 201.081C104.153 201.068 104.921 199.686 105.049 198.457C105.203 196.986 104.839 195.515 104.477 194.082L102.331 185.577C101.927 185.705 101.88 186.145 101.831 186.606C101.789 187 101.745 187.409 101.476 187.652C100.933 186.975 100.872 185.95 101.33 185.213C101.792 184.468 101.489 183.426 100.833 182.846C100.177 182.265 99.2644 182.068 98.3895 182.039C97.9167 182.024 97.4139 182.06 97.0272 182.333C96.64 182.606 96.4365 183.185 96.7114 183.571C97.5296 184.719 98.1447 186.012 98.5207 187.372C98.5487 187.473 98.5757 187.576 98.6032 187.679C98.7899 188.385 98.9824 189.111 99.4977 189.614C99.8959 190.003 99.9975 190.597 100.079 191.148L100.735 195.617C100.854 196.431 100.973 197.26 100.836 198.071C100.7 198.881 100.263 199.685 99.5287 200.053L101.872 200.852C102.212 200.968 102.56 201.085 102.919 201.081ZM128.465 127.832C128.003 127.93 127.616 127.524 127.285 127.177L127.247 127.137C126.908 126.782 126.326 126.473 125.969 126.809C121.809 130.73 117.076 134.038 111.967 136.595C111.04 137.059 110.915 138.311 110.915 139.349C110.914 139.696 111.246 140.183 111.462 139.912C112.515 138.59 113.885 137.563 115.239 136.552C119.049 133.706 122.904 130.834 127.271 128.958C127.801 128.73 128.421 128.408 128.465 127.832ZM170.271 123.423C170.036 122.869 169.366 122.669 168.774 122.557C167.165 122.254 165.526 122.116 163.889 121.979C161.64 121.789 159.395 121.601 157.232 120.982C156.538 120.784 155.946 121.488 155.566 122.102C156.706 121.983 157.853 121.933 159 121.955C160.994 121.991 162.979 122.24 164.958 122.489C165.965 122.615 166.977 122.743 167.942 123.056C168.055 123.092 168.168 123.131 168.282 123.17C168.941 123.397 169.621 123.631 170.271 123.423ZM148.976 131.942C149.431 132.046 149.866 132.387 149.934 132.851C150.002 133.313 149.686 133.764 149.283 133.999C148.881 134.235 148.404 134.301 147.942 134.362L146.55 134.547C146.41 134.565 146.266 134.585 146.145 134.657C145.796 134.865 145.819 135.427 146.105 135.717C146.392 136.006 146.831 136.078 147.237 136.077C149.131 136.074 150.924 134.708 151.502 132.902C151.639 132.473 151.712 131.996 151.542 131.579C151.455 131.367 151.311 131.184 151.151 131.021C150.406 130.265 149.297 129.932 148.239 130.006C147.181 130.081 146.175 130.533 145.314 131.153C144.902 131.451 144.509 131.799 144.274 132.25C144.04 132.702 143.99 133.276 144.252 133.712C144.352 133.879 144.507 134.026 144.698 134.057C144.889 134.089 145.11 133.965 145.134 133.772C145.2 133.236 145.59 132.784 146.055 132.511C146.521 132.239 147.057 132.119 147.585 132.013C148.044 131.921 148.52 131.837 148.976 131.942ZM111.657 158.443C112.177 155.359 114.663 152.853 117.561 151.691C119.158 151.051 120.985 150.77 122.591 151.387C122.988 151.539 123.371 151.749 123.657 152.064C123.925 152.359 124.094 152.732 124.222 153.111C125.038 155.536 124.21 158.34 122.457 160.2C120.704 162.061 118.151 163.037 115.604 163.22C114.787 163.279 113.911 163.246 113.237 162.782C112.563 162.317 112.229 161.284 112.747 160.651C112.993 160.662 113.125 160.882 113.261 161.106C113.327 161.218 113.395 161.33 113.478 161.419C113.761 161.725 114.229 161.746 114.644 161.729C116.451 161.653 118.284 161.204 119.755 160.15C121.225 159.096 122.281 157.375 122.25 155.563C122.24 154.98 122.114 154.383 121.784 153.902C121.242 153.112 120.218 152.756 119.264 152.819C118.31 152.882 117.415 153.306 116.603 153.811C115.534 154.476 114.546 155.312 113.876 156.378C113.206 157.446 112.878 158.764 113.161 159.993C112.911 160.445 112.167 160.355 111.859 159.939C111.551 159.523 111.57 158.953 111.657 158.443ZM128.292 183.856C126.971 184.708 125.875 186.042 125.671 187.603C125.506 188.866 125.928 190.123 126.345 191.327C126.67 192.267 127.006 193.226 127.625 194.003C128.743 195.406 130.594 195.987 132.363 196.272C132.845 196.35 133.576 196.132 133.404 195.674C131.536 195.64 129.699 194.772 128.483 193.351C127.267 191.93 126.693 189.977 126.945 188.122C126.998 187.732 127.087 187.344 127.25 186.986C127.582 186.261 128.199 185.704 128.866 185.272C130.304 184.341 132.054 183.905 133.76 184.053C135.404 184.195 137.046 184.917 138.05 186.229C139.054 187.542 139.293 189.478 138.407 190.873C138.264 191.1 138.159 191.501 138.423 191.548C139.848 190.779 140.64 189.082 140.56 187.461C140.48 185.84 139.626 184.323 138.452 183.205C137.803 182.587 137.034 182.064 136.163 181.854C135.015 181.577 133.814 181.863 132.672 182.164C131.152 182.564 129.614 183.005 128.292 183.856ZM193.197 185.869C188.418 184.082 183.225 183.416 178.15 183.939C176.023 184.158 173.888 184.593 171.975 185.553C168.366 187.362 165.785 191.088 165.356 195.108C164.927 199.129 166.662 203.317 169.808 205.851C171.001 206.811 172.354 207.531 173.71 208.251C174.636 208.743 175.562 209.235 176.438 209.805C176.689 210.045 176.125 210.284 175.796 210.177C172.73 209.186 169.754 207.679 167.568 205.309C164.908 202.426 163.61 198.333 164.123 194.441C164.636 190.549 166.95 186.933 170.266 184.841C172.888 183.186 176.024 182.489 179.121 182.377C182.219 182.265 185.307 182.709 188.37 183.184C190.283 183.481 192.526 184.051 193.197 185.869ZM142.912 191.869C142.695 191.371 141.823 191.24 141.663 191.76C140.65 195.065 137.431 197.564 133.983 197.723C133.204 197.759 132.424 197.686 131.647 197.611C129.975 197.448 128.25 197.257 126.786 196.432C124.68 195.246 123.413 192.81 123.398 190.39C123.383 187.969 124.529 185.617 126.269 183.938C126.027 183.26 124.991 183.588 124.476 184.089C121.622 186.868 121.132 191.665 123.135 195.11C125.137 198.556 129.333 200.487 133.289 200.049C137.245 199.611 140.816 196.958 142.655 193.422C142.905 192.94 143.129 192.367 142.912 191.869ZM118.141 208.605C117.497 211.081 117.436 213.707 117.964 216.21C118.201 217.333 118.227 217.951 118.232 218.067C118.232 218.08 118.233 218.087 118.233 218.087C118.233 218.087 118.234 218.08 118.234 218.067C118.239 217.951 118.267 217.33 118.51 216.205C119.05 213.698 118.922 211.049 118.141 208.605ZM121.565 210.102C120.649 212.025 120.763 214.403 121.857 216.23C122.103 216.64 122.289 216.974 122.427 217.22C122.612 217.551 122.708 217.723 122.742 217.712C122.779 217.699 122.74 217.467 122.658 216.982C122.626 216.787 122.587 216.552 122.542 216.273L121.565 210.102ZM124.142 212.557C123.754 213.784 124.04 215.204 124.873 216.184C125.724 217.186 126.002 217.506 125.742 216.217C125.478 214.902 124.928 213.644 124.142 212.557ZM198.736 198.596C197.567 203.297 193.834 206.858 190.214 210.07C190.379 210.427 190.914 210.299 191.256 210.106C194.923 208.039 197.89 204.669 199.244 200.678C200.597 196.687 200.261 192.101 198.124 188.47C197.944 188.165 197.716 187.841 197.369 187.773C197.023 187.705 196.623 188.107 196.827 188.397C198.881 191.311 199.596 195.134 198.736 198.596ZM146.02 156.151C146.011 155.407 146.021 154.602 146.47 154.009C147.087 153.193 148.258 153.107 149.28 153.093C149.736 153.086 150.197 153.08 150.641 153.186C151.586 153.411 152.339 154.11 153.009 154.814C153.158 154.97 153.316 155.162 153.279 155.374C153.234 155.638 152.905 155.759 152.643 155.705C152.469 155.669 152.314 155.582 152.157 155.496H152.157C152.078 155.452 152 155.408 151.918 155.371C150.979 154.939 149.874 155.413 149.031 156.011C148.898 156.105 148.755 156.226 148.751 156.388C148.748 156.552 148.888 156.678 149.019 156.775C150.16 157.612 151.62 158 153.025 157.838C153.361 157.8 153.755 157.676 153.843 157.349C153.876 157.221 153.863 157.071 153.851 156.925C153.829 156.682 153.809 156.454 154.013 156.369C154.119 156.325 154.24 156.357 154.35 156.389C155.11 156.61 155.999 156.967 156.146 157.746C156.189 157.971 156.159 158.206 156.087 158.424C155.878 159.061 155.294 159.558 154.633 159.664C154.339 159.71 154.04 159.685 153.744 159.66C152.97 159.593 152.196 159.526 151.429 159.402C150.021 159.175 148.644 158.755 147.349 158.157C146.9 157.95 146.433 157.694 146.205 157.255C146.032 156.92 146.024 156.527 146.02 156.151ZM174.933 137.812C174.48 136.587 173.387 135.62 172.118 135.322C171.725 135.23 171.281 135.208 170.948 135.436C170.615 135.664 170.5 136.22 170.818 136.469C171.126 136.711 170.94 137.279 170.564 137.386C170.187 137.494 169.782 137.238 169.594 136.894C169.407 136.551 169.386 136.142 169.384 135.75C169.381 135.227 169.429 134.643 169.815 134.291C169.962 134.156 170.145 134.07 170.326 133.989C171.078 133.652 171.909 133.367 172.712 133.547C173.477 133.72 174.087 134.286 174.621 134.862C175.058 135.333 175.472 135.828 175.86 136.341C176.202 136.794 176.531 137.277 176.659 137.83C176.787 138.383 176.677 139.025 176.25 139.399C175.833 139.765 175.191 139.796 174.684 139.57C174.236 139.37 173.855 138.931 173.888 138.441C173.921 137.951 174.522 137.545 174.933 137.812ZM178.97 172.258C180.093 172.225 181.139 171.359 181.381 170.261C181.528 169.593 181.347 168.799 180.766 168.44C180.341 168.177 179.807 168.196 179.31 168.228C178.621 168.273 177.905 168.333 177.307 168.678C176.708 169.022 176.263 169.737 176.45 170.403C176.755 171.485 177.848 172.29 178.97 172.258ZM179.115 170.635C178.898 170.694 178.589 170.638 178.569 170.414C178.561 170.32 178.611 170.232 178.668 170.158C178.987 169.744 179.594 169.584 180.076 169.786C179.908 170.196 179.542 170.52 179.115 170.635ZM179.695 153.998C179.511 153.576 179.866 153.083 180.296 152.921C180.641 152.792 181.015 152.805 181.386 152.819C181.479 152.822 181.571 152.825 181.662 152.826C182.122 152.832 182.63 152.755 182.928 152.405C183.033 152.281 183.105 152.1 183.025 151.958C182.941 151.811 182.743 151.785 182.574 151.777C181.402 151.716 180.019 151.752 179.343 152.713C179.198 152.92 178.843 152.849 178.707 152.637C178.571 152.424 178.602 152.144 178.68 151.904C178.956 151.043 179.75 150.416 180.618 150.165C181.486 149.914 182.417 149.993 183.298 150.193C183.595 150.26 183.903 150.349 184.12 150.563C184.292 150.733 184.388 150.966 184.451 151.199C184.751 152.316 184.308 153.596 183.382 154.288C182.456 154.979 181.105 155.039 180.122 154.432C179.947 154.323 179.776 154.188 179.695 153.998ZM175.679 173.742C176.223 174.395 176.867 174.989 177.648 175.322C179.229 175.994 181.249 175.373 182.18 173.929C182.52 173.403 182.672 172.601 182.17 172.228C181.366 173.92 179.034 174.668 177.399 173.757C177.085 173.582 176.801 173.359 176.542 173.111C175.366 171.983 174.752 170.14 175.442 168.663C175.667 168.181 176.012 167.765 176.39 167.391C177.214 166.577 178.393 165.91 179.492 166.272C179.538 166.287 179.584 166.304 179.629 166.321C179.783 166.377 179.938 166.434 180.1 166.425C180.31 166.413 180.529 166.225 180.475 166.021C180.459 165.961 180.422 165.908 180.383 165.86C179.703 164.992 178.37 164.724 177.408 165.262C176.264 165.902 175.102 166.656 174.494 167.819C173.503 169.711 174.312 172.102 175.679 173.742ZM193.897 144.552C193.847 144.624 193.86 144.725 193.872 144.821C193.886 144.935 193.9 145.043 193.806 145.09C193.464 145.259 193.054 145.241 192.689 145.13C191.693 144.823 191.025 143.907 190.461 143.029C190.131 142.515 189.803 141.97 189.75 141.361C189.697 140.753 190.007 140.069 190.592 139.897C191.244 139.705 191.883 140.191 192.391 140.644C192.963 141.154 193.548 141.68 193.903 142.361C194.257 143.042 194.336 143.922 193.897 144.552ZM191.731 142.273C191.872 142.41 191.949 142.594 192.026 142.778C192.101 142.959 192.178 143.14 192.314 143.277C192.487 143.45 192.75 143.527 192.989 143.476C192.541 142.781 192.022 142.133 191.443 141.544C191.288 141.591 191.275 141.821 191.368 141.953C191.425 142.034 191.504 142.093 191.583 142.152C191.634 142.191 191.686 142.229 191.731 142.273ZM106.449 205.022C106.394 205.933 106.464 206.989 107.192 207.538C107.434 207.403 107.418 207.055 107.387 206.778C107.199 205.075 107.727 203.433 108.258 201.78C108.638 200.597 109.02 199.408 109.143 198.187C109.178 197.833 109.084 197.348 108.729 197.334C108.463 197.324 108.291 197.605 108.184 197.849C107.19 200.112 106.599 202.553 106.449 205.022ZM177.078 172.15C177.899 172.514 178.81 172.885 179.67 172.623C180.012 172.519 180.316 172.322 180.616 172.126C180.614 172.63 180.182 173.053 179.701 173.196C179.219 173.34 178.701 173.263 178.21 173.157C177.665 173.038 176.998 172.703 177.078 172.15ZM112.094 214.164C112.304 213.79 112.339 213.346 112.37 212.919L112.618 209.511C112.74 207.839 112.862 206.16 112.753 204.487C112.739 204.276 112.718 204.054 112.595 203.882C112.472 203.71 112.212 203.618 112.044 203.745C111.92 203.84 111.889 204.009 111.867 204.163C111.598 206.098 111.454 208.05 111.437 210.004C111.424 211.42 111.489 212.884 112.094 214.164ZM108.376 211.236C108.158 211.42 107.796 211.258 107.676 210.999C107.556 210.739 107.604 210.437 107.656 210.156C108.194 207.215 108.805 204.287 109.487 201.376C109.504 201.304 109.522 201.228 109.569 201.17C109.749 200.947 110.112 201.171 110.239 201.427C110.552 202.055 110.402 202.804 110.246 203.488L108.564 210.835C108.531 210.981 108.491 211.139 108.376 211.236ZM114.2 211.366C114.106 212.469 114.271 213.576 114.436 214.671C114.494 215.06 114.774 215.579 115.126 215.401L115.811 208.062C115.839 207.763 115.857 207.432 115.673 207.197C115.488 206.961 115.02 206.97 114.961 207.264L114.456 209.781C114.351 210.306 114.245 210.833 114.2 211.366ZM184.939 188.873C182.989 187.867 180.615 187.47 178.589 188.313C177.076 188.943 172.799 191.662 172.23 195.147C171.849 197.48 171.853 199.864 172.668 202.116L172.799 202.469C173.042 203.107 173.815 203.84 174.248 203.313C172.985 201.026 172.749 198.195 173.616 195.731C174.482 193.266 176.437 191.208 178.851 190.219C179.359 190.011 179.89 189.848 180.436 189.796C181.541 189.691 182.644 190.05 183.632 190.557C185.759 191.648 188.394 193.464 189.406 195.632C190.382 197.723 191.1 200.216 190.217 202.348C189.334 204.48 183.532 206.022 183.532 206.022L184.174 207.196C184.174 207.196 187.422 206.554 189.406 205.107C197.732 199.031 186.805 189.835 184.939 188.873Z" fill="#00160A"/>
<path fill-rule="evenodd" clip-rule="evenodd" d="M38.1461 158.536C35.2151 158.845 32.1111 158.179 29.8227 156.354C28.202 155.062 27.0634 153.264 26.2641 151.37C25.3964 149.314 24.8977 147.108 24.7975 144.884C24.7595 144.047 24.7798 143.194 25.0305 142.393C25.4427 141.075 26.4358 140.017 27.4491 139.062C29.6055 137.031 32.1402 135.178 35.0959 134.751C37.1102 134.46 39.159 134.857 41.1305 135.355C42.6792 135.746 44.2257 136.208 45.6181 136.979C48.6961 138.683 50.8287 141.934 51.1372 145.39C51.4457 148.846 51.0661 151.137 46.3163 155.431C43.8483 157.014 41.0771 158.227 38.1461 158.536ZM43.3147 147.686C42.8394 147.833 42.3654 148.093 41.8746 148.008C40.8723 147.835 40.6927 146.484 40.9151 145.509C41.5524 142.716 43.5345 140.25 46.1522 138.993C45.5594 137.937 43.9856 137.86 42.8721 138.367C41.759 138.874 40.8886 139.788 39.8122 140.367C39.2764 140.655 38.6413 140.859 38.0587 140.68C37.0992 140.385 36.7333 139.151 37.0471 138.213C37.3614 137.276 38.1448 136.576 38.8973 135.922C36.171 136.016 33.4731 136.819 31.1529 138.229C29.3363 139.332 27.6133 141.141 27.8547 143.225C29.3562 142.038 31.1194 141.172 32.9872 140.703C33.3835 140.603 33.8809 140.553 34.1289 140.873C34.3165 141.115 34.2627 141.463 34.1422 141.743C33.545 143.134 31.7893 143.6 30.7005 144.665C30.5575 144.805 30.4203 144.966 30.3858 145.161C30.3179 145.544 30.689 145.893 31.0792 145.957C31.4694 146.02 31.8608 145.881 32.2307 145.744C32.9991 145.459 33.7675 145.175 34.5358 144.89C35.0924 144.684 35.7526 144.487 36.2474 144.811C36.7589 145.146 36.807 145.908 36.5179 146.441C36.2289 146.974 35.6979 147.332 35.1868 147.668C33.9555 148.478 32.7241 149.289 31.4927 150.1C30.4618 150.778 29.3067 151.693 29.4047 152.908C29.497 154.052 30.7782 154.829 31.9438 154.756C33.1098 154.682 34.136 153.982 34.9966 153.206C35.8568 152.43 36.6336 151.544 37.6328 150.95C38.2851 150.562 39.2155 150.346 39.7451 150.885C40.1542 151.301 40.1149 151.969 39.9614 152.528C39.5187 154.138 38.3217 155.531 36.7806 156.23C38.0344 156.515 39.3421 156.568 40.6154 156.388C41.3419 156.284 42.0935 156.087 42.6187 155.584C43.1439 155.08 43.3474 154.194 42.8919 153.63C42.2122 152.787 42.2392 151.554 42.6734 150.567C43.1077 149.58 43.8832 148.783 44.6427 148.01C44.4252 147.569 43.7901 147.539 43.3147 147.686ZM49.1189 149.599C49.8017 148.049 49.8264 146.296 49.6534 144.616C49.4623 142.758 48.8029 140.633 47.0203 139.982C44.4084 141.047 42.3927 143.422 41.7974 146.137C41.7475 146.365 41.7082 146.61 41.7996 146.826C41.8909 147.041 42.1624 147.199 42.3729 147.09C43.0949 146.719 43.9834 146.508 44.7173 146.856C45.4513 147.204 45.8088 148.291 45.2143 148.839C44.5576 149.444 43.8832 150.074 43.5288 150.887C43.1744 151.7 43.2256 152.753 43.8929 153.347C44.3938 153.794 44.3951 154.671 43.8951 155.119C45.3167 154.711 46.33 153.511 47.2516 152.373C47.9564 151.503 48.6692 150.619 49.1189 149.599ZM32.7532 141.584C31.2747 142.186 29.839 142.891 28.4616 143.692C28.1336 143.882 27.8026 144.084 27.563 144.374C27.2395 144.767 27.1163 145.279 27.0166 145.774C26.6935 147.374 26.5271 149.097 27.2112 150.583C27.4297 151.057 27.728 151.491 28.0251 151.923C28.1129 152.05 28.2122 152.186 28.3627 152.229C28.5128 152.272 28.7114 152.153 28.6761 152.003C28.5675 151.542 28.9232 151.108 29.2741 150.783C31.3308 148.882 34.1011 147.791 35.9508 145.695C35.6701 145.368 35.1378 145.522 34.738 145.689C33.7851 146.088 32.8027 146.42 31.8012 146.679C31.2844 146.813 30.7085 146.922 30.2371 146.675C29.5468 146.314 29.4347 145.325 29.7993 144.646C30.1638 143.966 30.8568 143.528 31.525 143.129C32.1932 142.73 32.8945 142.313 33.2957 141.654C33.2224 141.466 32.9426 141.507 32.7532 141.584ZM37.8146 154.319C38.4678 153.803 39.174 153.195 39.2455 152.375C39.2826 151.946 39.0027 151.421 38.5663 151.462C38.4321 151.475 38.3094 151.54 38.1937 151.608C36.2933 152.723 35.043 154.903 32.8989 155.445C33.5049 155.711 34.1364 155.921 34.7826 156.07C34.975 156.114 35.1754 156.153 35.3687 156.114C35.5942 156.068 35.7827 155.922 35.9618 155.781C36.5793 155.294 37.1967 154.806 37.8146 154.319ZM39.5818 136.496C39.159 136.955 38.7362 137.414 38.3134 137.873C37.9784 138.237 37.6187 138.717 37.8054 139.172C37.9426 139.508 38.3482 139.677 38.715 139.649C39.0822 139.621 39.4163 139.437 39.7239 139.238C40.8202 138.532 41.8071 137.57 43.0865 137.287C42.1994 136.97 41.3123 136.652 40.4252 136.335C40.2407 136.269 40.0346 136.203 39.8528 136.277C39.7438 136.321 39.6608 136.409 39.5818 136.496Z" fill="#00160A"/>
<path fill-rule="evenodd" clip-rule="evenodd" d="M55.9142 80.4036C55.8026 82.6273 54.0807 85.0357 51.8613 84.7726C50.8594 83.6185 50.0757 82.1858 49.3009 80.7699C47.8128 78.0506 46.3588 75.3933 43.4615 74.8888C40.6159 74.3933 37.9657 76.4788 36.1935 78.7516C33.627 82.0431 31.9681 86.0309 31.4454 90.1665C31.1378 92.5983 32.1388 95.97 34.5835 95.7025C37.3763 95.3969 39.3624 97.5856 41.3826 99.812C43.2522 101.872 45.1506 103.965 47.7452 104.141C50.834 104.352 53.357 106.195 55.9111 108.062C57.6171 109.308 59.3369 110.565 61.2482 111.352C64.8433 112.832 68.9896 112.546 72.6594 111.26C76.3297 109.975 79.5959 107.761 82.6869 105.408L82.8491 105.284C84.5365 103.999 86.3029 102.653 88.401 102.369C99.1303 100.921 109.11 94.6507 115.045 85.6283C123.46 92.3304 135.225 94.621 145.553 91.5682C147.305 91.05 149.069 90.3556 150.368 89.0748C151.668 87.794 152.405 85.8054 151.766 84.099C151.067 82.2327 148.98 81.2336 146.996 80.9935C145.908 80.8615 144.812 80.9005 143.715 80.9395H143.715C142.81 80.9718 141.905 81.0037 141.004 80.9404C135.549 80.556 131.006 76.807 126.876 73.2356C132.861 71.4065 137.713 66.812 140.918 61.4536C144.122 56.0947 145.839 49.9905 147.143 43.8898C147.83 40.6793 148.34 37.0628 146.499 34.3408C145.675 33.1225 144.467 32.2314 143.263 31.3438C141.908 30.3443 140.557 29.3487 139.767 27.8938C138.247 25.0948 135.284 23.4353 132.474 21.9233C125.119 17.9671 116.671 13.8952 108.745 16.5374C105.657 17.5667 102.99 19.5388 100.39 21.4906C96.0717 24.7316 91.4458 28.5338 90.6235 33.8581C83.5581 30.7083 74.417 33.2239 69.9751 39.5398C68.959 40.9845 68.1793 42.5775 67.4001 44.1693C66.4827 46.0431 65.5665 47.9143 64.2677 49.5387C59.0502 47.1702 53.7344 45.0174 48.3386 43.0877C45.9463 42.2321 43.0882 41.4756 41.0266 42.9571C39.3735 44.1449 38.8663 46.4758 39.3517 48.4479C39.8366 50.4205 41.1324 52.0924 42.5214 53.5783C45.5351 56.8016 49.1556 59.4602 53.1379 61.3743C53.2663 61.4363 53.3957 61.4979 53.5255 61.5594C54.7723 62.1511 56.0542 62.7596 56.8846 63.846C57.8011 65.0454 57.858 67.0525 56.573 67.8484C54.6749 69.0238 54.3251 71.6616 54.7145 73.8543C54.8474 74.6036 55.0426 75.3459 55.2372 76.0868C55.6128 77.5151 55.9876 78.9394 55.9142 80.4036ZM107.449 92.1293C102.665 97.1335 95.9348 100.061 89.0526 100.917C82.1704 101.773 75.1428 100.66 68.5687 98.4585C70.3374 98.4577 71.6157 96.1507 70.6752 94.6586C67.0521 98.8669 61.5283 100.838 56.2649 102.638C51.5097 104.264 45.8258 103.083 42.333 99.4803C38.8401 95.8774 37.8951 89.9663 40.3514 85.5955C41.4191 83.696 43.23 82.0423 45.4071 81.8558C47.5843 81.6693 49.929 83.4683 49.7268 85.6362C48.5155 85.4263 47.2402 86.4516 47.1905 87.6757C51.8777 87.173 56.284 84.4967 58.8804 80.5768C59.7765 79.2233 60.4579 77.7499 61.1393 76.2746C61.5972 75.2843 62.055 74.2932 62.5786 73.3379C63.8819 70.9596 65.7528 68.6925 68.346 67.8749C70.4272 67.2195 72.6768 67.5831 74.8277 67.9529L84.3831 69.5942C85.0983 68.979 83.94 67.9932 83.0154 67.801C80.0288 67.1792 77.0004 66.7961 73.972 66.4125C71.1641 66.0573 68.3553 65.7021 65.5799 65.1565C59.8107 64.0223 54.0122 61.9478 49.8134 57.8468C52.6618 56.2139 54.8287 53.4396 55.7177 50.2881C55.8978 49.6504 55.4693 48.6029 54.9492 49.0157C54.3558 51.0618 53.7122 53.1961 52.2244 54.7253C50.7367 56.255 48.1252 56.9269 46.4415 55.6146C44.2554 53.9113 41.9574 52.053 41.0928 49.4258C40.2282 46.7982 41.596 43.2698 44.3519 42.9473C45.5894 42.803 46.7984 43.3123 47.9394 43.8105L59.4489 48.8372C62.8742 50.3333 66.3511 51.8444 70.0511 52.3874C72.6492 52.7682 75.2918 52.6615 77.9152 52.5534L85.3539 52.2478C85.6579 52.2354 85.97 52.2213 86.25 52.1021C86.9972 51.7846 87.2506 50.8749 87.4155 50.0826C89.4117 40.4854 92.0934 30.3576 99.349 23.7391C102.596 20.7776 106.64 18.6925 110.942 17.7624C115.182 16.8457 119.86 17.115 123.51 19.4516C117.387 19.9007 111.44 22.4738 106.931 26.6258C105.036 24.6103 101.509 26.2578 99.998 28.5723C97.6554 32.1605 97.6977 37.1452 100.102 40.6935C102.125 43.6799 102.875 47.2433 103.627 50.8151C104.319 54.0978 105.011 57.3875 106.694 60.2427C109.358 64.7597 114.318 67.6588 119.497 68.5578C124.678 69.4564 130.048 68.5175 134.97 66.6783C129.46 72.154 120.658 74.0482 113.372 71.3259C112.84 71.1274 112.312 70.906 111.783 70.6841L111.783 70.6837C110.109 69.9813 108.428 69.2762 106.633 69.2975C107.685 70.4073 109.028 71.2408 110.493 71.6912C108.804 74.5168 107.033 77.2928 105.182 80.0152C104.945 80.3633 104.675 80.7344 104.27 80.8522C103.818 80.9833 103.347 80.7592 102.935 80.5325C99.5312 78.6582 96.4802 76.1497 93.987 73.1762L88.9988 79.2215C91.5587 82.3394 94.5511 85.1035 97.8648 87.4109C93.4545 92.8393 86.7728 96.3752 79.7888 96.9762C87.0181 97.3429 94.3364 93.9646 98.7298 88.2324C101.511 89.7883 104.433 91.0943 107.449 92.1293ZM130.311 38.9707C131.908 37.2351 132.5 34.7562 132.363 32.4054C132.227 30.0546 131.433 27.7937 130.555 25.6072C132.843 25.337 135.168 26.1971 136.991 27.6019C138.813 29.0063 140.183 30.9174 141.305 32.9223C142.667 35.3524 143.711 37.98 144.163 40.7263C145.229 47.1928 142.953 53.7855 139.712 59.4881C139.083 60.5953 138.406 61.695 137.487 62.5785C136.562 63.4687 135.424 64.1087 134.258 64.6485C129.446 66.8762 123.91 67.5193 118.713 66.4537C122.031 63.7017 124.374 59.9097 125.866 55.8733C127.358 51.8369 128.041 47.5467 128.435 43.2631L128.437 43.2392C128.536 42.159 128.64 41.0235 129.258 40.1315C129.463 39.8361 129.716 39.5801 129.969 39.3241C130.084 39.2076 130.2 39.0907 130.311 38.9707ZM124.306 56.8126C122.875 60.1493 120.657 63.2132 117.65 65.2606C117.297 65.5006 116.919 65.7318 116.496 65.7814C116.122 65.8248 115.747 65.7221 115.388 65.6091C112.832 64.8053 110.416 63.3801 108.776 61.2671C108.181 60.5005 107.695 59.6546 107.262 58.787C104.105 52.4671 103.795 44.799 106.433 38.247C106.559 37.9344 106.739 37.5827 107.071 37.5172C107.501 37.4321 107.83 37.8701 108.071 38.2338C110.041 41.2086 113.726 42.7148 117.3 42.8707C120.873 43.0266 124.389 42.0146 127.778 40.8733C127.16 42.3782 127.003 44.0173 126.847 45.6414V45.6436L126.847 45.6458C126.828 45.8487 126.808 46.0515 126.788 46.2539C126.424 49.8647 125.738 53.476 124.306 56.8126ZM123.579 25.8145C125.407 25.3999 127.541 25.2861 128.938 26.5324C129.39 26.935 129.725 27.4514 130.001 27.9886C131.732 31.3585 131.054 35.7966 128.395 38.5013C125.322 41.6276 120.458 42.1426 116.082 41.7719C114.511 41.6386 112.896 41.3977 111.556 40.5722C109.821 39.5039 108.794 37.6217 107.844 35.8236C112.061 31.1291 117.413 27.2109 123.579 25.8145ZM138.369 82.4887C137.795 83.932 137.216 85.3949 137.028 86.9361C136.84 88.4773 137.085 90.1311 138.025 91.3689C130.219 91.7989 122.286 89.4007 116.036 84.7204C118.051 81.8784 119.643 78.7388 120.742 75.4358C121.177 74.1315 122.834 73.5872 124.18 73.8893C125.419 74.1674 126.46 74.9593 127.474 75.7316L127.599 75.8264C127.645 75.861 127.69 75.896 127.736 75.9305C131.059 78.4443 134.721 80.4709 138.369 82.4887ZM83.8177 102.2C82.5864 103.581 81.1152 104.727 79.6119 105.809C76.4746 108.066 73.0533 110.117 69.2399 110.773C63.6516 111.733 57.614 109.332 54.226 104.801L66.4155 100.27C66.7071 100.162 67.0094 100.052 67.3205 100.069C67.4961 100.079 67.665 100.13 67.8344 100.18C67.9473 100.213 68.0602 100.246 68.1753 100.269C68.5665 100.342 68.9612 100.277 69.3577 100.212C69.6044 100.172 69.852 100.131 70.0995 100.124C71.0121 100.097 71.8504 100.512 72.6803 100.923C72.8906 101.027 73.1008 101.131 73.3115 101.228C76.5435 102.709 80.2702 102.469 83.8177 102.2ZM66.2177 50.2372C66.1319 50.0454 66.2226 49.8253 66.3133 49.6362C68.8096 44.427 72.1118 39.6023 76.0674 35.3851C78.85 39.2347 80.7018 43.7467 81.4232 48.436C81.5677 49.3731 81.4116 50.6694 80.4671 50.7863C75.9407 51.3488 71.3348 51.2722 66.8294 50.5605C66.5911 50.5228 66.3164 50.4564 66.2177 50.2372ZM83.2665 49.9156C82.3344 44.8101 80.3995 39.8888 77.6036 35.5109C79.9701 34.2695 82.7682 34.2492 85.4428 34.2576C87.1319 34.2629 88.9757 34.3218 90.263 35.4117L86.9239 45.2282C86.3571 46.8947 85.7828 48.6083 85.8544 50.3665L83.7439 50.4002C83.6684 50.4015 83.591 50.4019 83.5217 50.3731C83.3528 50.3027 83.2994 50.095 83.2665 49.9156ZM110.425 75.0376C110.986 74.0872 111.52 73.0721 111.577 71.9711C114.102 73.1027 116.883 73.6634 119.651 73.5992C120.086 73.589 120.07 74.2564 119.892 74.6515C119.353 75.8468 118.814 77.0435 118.19 78.1972C117.549 79.3814 116.823 80.5165 116.096 81.6503L114.356 84.3683C114.118 84.7403 113.872 85.1207 113.518 85.386C112.568 86.0977 111.212 85.7554 110.128 85.27C108.33 84.4653 106.675 83.3443 105.262 81.9741C107.224 79.8535 108.958 77.524 110.425 75.0376ZM45.1209 77.3858C45.9574 78.2264 46.5046 79.3039 47.0375 80.362L44.5275 80.7185C43.6909 80.8372 42.8335 80.963 42.0943 81.3704C41.3751 81.7668 40.8203 82.4028 40.3323 83.0613C38.2907 85.8169 37.159 89.2307 37.1519 92.6559C37.1496 93.8929 35.6819 94.7756 34.4809 94.462C33.2798 94.1484 32.4637 92.9597 32.2561 91.74C32.0486 90.5203 32.341 89.2732 32.7077 88.0911C33.9981 83.932 36.3069 80.0037 39.722 77.2884C40.3749 76.7698 41.0959 76.2839 41.92 76.1528C43.0935 75.9659 44.2843 76.5452 45.1209 77.3858ZM150.531 84.3484C150.821 84.7199 151.036 85.1725 151.023 85.6438C151.007 86.2518 150.619 86.7855 150.202 87.2306C147.78 89.8179 144.055 90.6988 140.528 91.1138C140.296 91.1413 140.052 91.1661 139.834 91.081C139.655 91.0111 139.511 90.8738 139.383 90.7303C138.532 89.7767 138.195 88.4441 138.264 87.1699C138.333 85.8958 138.774 84.6686 139.324 83.5162C139.44 83.2735 139.574 83.0184 139.81 82.8882C139.998 82.7845 140.223 82.7761 140.438 82.7708L144.706 82.6592C145.757 82.6317 146.82 82.6052 147.849 82.8213C148.877 83.037 149.885 83.5219 150.531 84.3484ZM102.957 44.1617C101.218 40.9508 99.9166 37.5048 99.1005 33.9475L99.8028 32.0773C100.672 30.4005 101.768 28.8402 103.052 27.4522C103.575 26.8871 104.481 26.8242 105.202 27.0966C105.924 27.369 106.504 27.9106 107.064 28.4394L109.585 30.8186C109.659 30.8895 109.737 30.9656 109.763 31.0653C109.809 31.2531 109.654 31.4253 109.513 31.5586C108.333 32.6765 107.284 33.9374 106.443 35.3267C105.172 37.4268 104.396 39.7807 103.631 42.1112L102.957 44.1617ZM109.398 26.1272C114.53 23.3888 120.142 20.8121 125.931 21.4286C128.956 21.7506 131.851 22.9499 134.372 24.6493C127.151 22.7998 119.103 24.5058 113.263 29.1228C112.36 29.8367 111.006 30.6118 110.202 29.7889C109.996 29.5776 109.861 29.2818 109.729 28.993C109.519 28.5316 109.317 28.0891 108.845 28.0457C108.395 28.0045 108.195 27.396 108.386 26.9881C108.577 26.5798 109 26.3397 109.398 26.1272ZM95.3018 76.2108C96.3148 77.1807 97.4301 78.0364 98.5427 78.8903L103.038 82.3403C101.654 83.556 100.299 84.8054 98.9765 86.0871C95.8268 84.227 93.0153 81.8 90.719 78.9589C91.9761 77.6542 93.1829 76.3016 94.3355 74.9048C94.5168 75.4203 94.9067 75.8326 95.3018 76.2108ZM66.3969 66.8798C64.0295 68.7221 61.582 70.6615 60.2801 73.3587C60.0258 73.8857 59.8156 74.4406 59.6058 74.9943C59.1595 76.1714 58.715 77.3446 57.8505 78.2406C57.4669 78.1285 57.3162 77.6781 57.2228 77.291L56.3218 73.558C56.2005 73.0544 56.0782 72.5367 56.1471 72.0234C56.216 71.5123 56.469 71.0468 56.717 70.5942L59.36 65.7823C59.4191 65.6751 59.48 65.5649 59.5747 65.4869C59.8085 65.2934 60.1543 65.3549 60.4495 65.4271L66.3969 66.8798ZM104.852 83.4103C106.466 85.064 108.472 86.3356 110.66 87.0907C111.069 86.7071 111.859 86.9184 112.021 87.4547C111.268 88.4277 110.442 89.3445 109.551 90.1939C109.153 90.5735 108.516 90.4933 107.979 90.3707C105.357 89.771 102.832 88.755 100.527 87.3728C100.374 87.2802 100.2 87.1487 100.215 86.9698C100.226 86.8497 100.32 86.7563 100.41 86.6748L103.645 83.7057C103.984 83.3944 104.53 83.0808 104.852 83.4103ZM146.161 41.9345C146.131 42.2981 146.079 42.7042 145.794 42.9332C145.792 40.0753 145.08 37.2209 143.741 34.6934C143.498 34.2354 143.234 33.7872 142.942 33.359C142.904 33.3036 142.866 33.2487 142.827 33.1933C142.532 32.7682 142.229 32.3332 142.157 31.8257L145.625 35.4343C145.943 35.7665 146.271 36.1128 146.422 36.5473C146.568 36.9662 146.533 37.4228 146.497 37.8648L146.161 41.9345ZM142.177 37.3484L141.392 36.3626C140.528 35.2775 139.469 34.0933 138.079 34.0915C137.272 34.0906 136.531 34.5025 135.83 34.902L134.744 35.5233C134.447 35.6929 134.142 35.8692 133.932 36.1394C133.328 36.9175 133.769 38.0548 134.34 38.8573C134.735 39.4127 135.208 39.9459 135.836 40.2134C136.649 40.5593 137.584 40.4061 138.436 40.1722C139.602 39.8516 140.729 39.3892 141.784 38.7984C142.121 38.6093 142.494 38.3325 142.477 37.9477C142.467 37.7209 142.319 37.5265 142.177 37.3484ZM135.318 38.1097C135.183 37.8954 135.043 37.6664 135.041 37.4131C135.037 36.9184 135.533 36.5862 135.969 36.3493L137.518 35.5074C137.752 35.3798 137.996 35.2496 138.263 35.2319C138.529 35.2137 138.825 35.3417 138.914 35.592C139.179 36.3316 139.83 36.9211 140.594 37.1128C140.841 37.1753 140.92 37.5163 140.804 37.7422C140.687 37.968 140.447 38.1 140.219 38.2129C139.402 38.6164 138.549 38.9459 137.672 39.1952C137.32 39.2949 136.948 39.3826 136.592 39.298C136.011 39.1603 135.636 38.6137 135.318 38.1097ZM124.295 45.7322C122.758 45.9102 122.465 48.6711 123.179 50.1437C123.326 50.4467 123.556 50.7589 123.891 50.801C124.463 50.8736 124.78 50.1694 124.906 49.6083L124.91 49.595C125.077 48.8554 125.822 45.5546 124.295 45.7322ZM116.368 49.3536C116.676 48.6397 116.778 47.839 116.661 47.071C116.606 46.714 116.498 46.3513 116.259 46.0803C116.02 45.8092 115.624 45.6516 115.283 45.7738C114.975 45.8845 114.78 46.1852 114.634 46.478C114.118 47.5108 113.913 48.6951 114.051 49.8404C114.115 50.3731 114.789 50.6646 115.3 50.4958C115.812 50.3275 116.156 49.847 116.368 49.3536ZM120.899 47.7189C121.138 47.5223 121.438 47.8797 121.535 48.1733C121.854 49.1371 122.117 50.1189 122.324 51.1123C122.455 51.7399 122.563 52.3922 122.423 53.018C122.227 53.9007 121.554 54.6186 120.773 55.0783C119.991 55.538 119.102 55.7763 118.226 56.0092C117.994 56.0708 117.703 56.1147 117.553 55.9278C117.426 55.7696 117.489 55.5216 117.634 55.3786C117.775 55.2391 117.973 55.1744 118.162 55.1124L118.174 55.1084C119.54 54.6611 121.001 53.8537 121.319 52.456C121.494 51.6876 121.281 50.9157 121.067 50.1402C120.873 49.4338 120.677 48.7252 120.773 48.0139C120.788 47.9054 120.814 47.7889 120.899 47.7189ZM111.355 44.5754C110.995 44.0785 111.283 43.3238 111.805 43C112.327 42.6759 112.987 42.6803 113.597 42.7587C114.324 42.8526 115.04 43.0368 115.723 43.3065C115.868 43.3641 116.024 43.4372 116.088 43.5793C116.207 43.8424 115.9 44.1303 115.611 44.1298C115.378 44.1298 115.167 44.0182 114.958 43.9075C114.907 43.8809 114.857 43.8544 114.806 43.8291C113.668 43.2662 112.157 43.5926 111.355 44.5754ZM124.482 44.404C125.023 44.3145 125.597 44.439 126.052 44.7446C126.242 44.8726 126.514 44.6578 126.516 44.4292C126.516 44.2007 126.345 44.0085 126.165 43.8672C125.777 43.5625 125.294 43.3805 124.8 43.353C124.482 43.3349 124.13 43.3964 123.925 43.6396C123.72 43.8827 123.781 44.3393 124.089 44.4239C124.198 44.4545 124.313 44.4337 124.427 44.4137C124.445 44.4106 124.464 44.4071 124.482 44.404ZM117.765 58.4159C117.917 58.3299 118.118 58.4796 118.141 58.6524C118.163 58.8251 118.064 58.9907 117.951 59.1236C117.384 59.791 116.406 59.9965 115.542 59.8397C114.678 59.6834 113.904 59.221 113.176 58.733C112.833 58.5036 112.496 58.2662 112.163 58.0221C111.819 57.7688 111.453 57.4588 111.411 57.0345C111.371 56.6102 111.916 56.1824 112.228 56.4747C112.993 57.1931 113.776 57.9234 114.728 58.3676C115.681 58.8122 116.849 58.9305 117.765 58.4159ZM101.37 61.8181C98.18 54.9091 96.8491 47.1583 97.5523 39.5859C97.5643 39.4565 97.5808 39.3179 97.6666 39.22C97.7879 39.0819 98.0359 39.0876 98.1506 39.2311C98.1097 43.3969 98.0706 47.5874 98.7534 51.6973C99.4357 55.8073 100.885 59.8734 103.531 63.0989C103.61 63.1954 103.69 63.2911 103.77 63.3872C104.226 63.9311 104.685 64.4793 104.943 65.1353C103.222 65.102 102.089 63.3757 101.37 61.8181ZM104.499 30.6202C104.44 30.5564 104.371 30.5006 104.291 30.4661C104.061 30.3673 103.792 30.4687 103.59 30.6171C102.787 31.2092 102.784 32.5941 103.584 33.1902C103.975 32.8585 104.375 32.5144 104.604 32.0569C104.833 31.5998 104.847 30.9953 104.499 30.6202ZM111.422 37.9158C112.288 38.616 113.273 39.1673 114.324 39.5385C117.714 40.736 121.524 39.984 124.795 38.4942C125.295 38.2665 125.933 38.3865 126.315 38.7803C124.214 40.2715 121.641 41.0912 119.062 41.0908C118.493 41.0908 117.925 41.0518 117.358 41.0022C116.199 40.9017 115.031 40.7533 113.94 40.349C112.849 39.9442 111.831 39.2599 111.214 38.2772L111.422 37.9158ZM148.338 83.4387C148.304 83.5538 148.397 83.6637 148.483 83.7482L149.771 85.022C149.911 84.6557 149.754 84.2292 149.483 83.944C149.213 83.6588 148.849 83.4856 148.492 83.3182C148.423 83.3213 148.358 83.3722 148.338 83.4387Z" fill="#00160A"/>
<path fill-rule="evenodd" clip-rule="evenodd" d="M232.081 34.0685C233.649 34.6046 235.125 33.2088 236.476 32.2581C238.567 30.7868 241.294 30.2306 243.804 30.7633C244.22 30.8518 244.656 30.9843 244.931 31.306C245.181 31.6003 245.253 32.0013 245.293 32.3841C245.54 34.7245 244.947 37.143 243.643 39.113C243.009 40.0716 242.214 40.9247 241.647 41.9234C241.08 42.9221 240.756 44.1418 241.16 45.215C243.563 51.5948 242.563 59.1197 238.574 64.6721C234.586 70.224 227.724 73.6456 220.83 73.5183C217.304 73.4529 213.85 72.524 210.529 71.3561C209.079 70.8461 207.486 70.2872 206.048 70.8252C203.422 71.8073 200.659 72.4276 197.861 72.6622C197.167 72.7206 196.442 72.7502 195.802 72.4799C194.843 72.075 194.264 71.0488 194.154 70.0248C194.044 69.0013 194.331 67.9768 194.693 67.0113C195.785 64.0993 199.176 59.5504 201.229 58.5025C201.063 54.9662 201.081 51.3886 201.856 47.9326C202.63 44.4762 204.211 41.1222 206.803 38.6766C207.874 37.6666 209.1 36.8257 210.383 36.0959C216.876 32.4058 225.002 31.6465 232.081 34.0685ZM222.194 33.7812C217.229 33.8958 212.397 35.8645 208.515 38.9233C207.376 39.8214 206.305 40.8187 205.45 41.9844C204.775 42.9033 204.242 43.9173 203.797 44.9635C201.154 51.1698 201.757 58.6267 205.365 64.3399C205.444 64.4646 205.534 64.5967 205.674 64.6451C205.847 64.7048 206.034 64.6176 206.196 64.5326C217.528 58.5713 227.614 50.3145 235.647 40.4251C235.838 40.1897 236.039 39.9159 235.998 39.6169C235.967 39.3924 235.805 39.2102 235.647 39.0463C232.219 35.4992 227.159 33.6665 222.194 33.7812ZM229.135 70.8313C234.517 68.3365 238.605 63.4075 240.354 57.7971C240.75 56.5268 241.034 55.2134 241.062 53.8847C241.086 52.767 240.928 51.6545 240.77 50.5477C240.542 48.9431 240.313 47.3384 240.085 45.7334C240.024 45.3079 239.609 44.7464 239.306 45.0546C230.884 53.6101 221.688 61.4223 211.863 68.3679C211.536 68.5989 211.176 68.8849 211.159 69.2816C211.138 69.7406 211.582 70.0732 211.985 70.3029C217.136 73.235 223.753 73.3256 229.135 70.8313ZM195.935 70.1778C196.326 70.7977 197.175 70.925 197.915 70.945C201.796 71.051 205.636 69.9285 209.109 68.2135C212.582 66.4991 215.725 64.2052 218.779 61.8386C222.853 58.6825 226.805 55.3743 230.657 51.9571C235.427 47.7247 240.115 43.2355 243.246 37.7102C243.852 36.6413 244.411 35.4695 244.316 34.2481C244.222 33.027 243.235 31.7942 241.995 31.8422C239.364 31.9433 236.778 32.942 234.775 34.6291C234.377 34.9647 234.659 35.6788 235.149 35.8605C235.639 36.0423 236.185 35.8619 236.664 35.653C237.143 35.4442 237.642 35.2001 238.162 35.2572C238.957 35.3444 239.522 36.1478 239.569 36.936C239.617 37.7246 239.264 38.4818 238.848 39.1561C238.078 40.4042 237.072 41.4923 236.056 42.555C227.024 52.0011 216.605 60.1524 205.226 66.6756C204.201 67.2632 203.164 67.8395 202.061 68.2672C201.483 68.4917 200.82 68.6721 200.255 68.4154C199.329 67.9943 199.255 66.7113 199.533 65.7432C199.95 64.2898 200.851 62.9759 202.063 62.0539C201.834 61.4153 201.604 60.7767 201.374 60.1385C198.383 62.0247 196.283 65.234 195.771 68.7018C195.697 69.2022 195.664 69.7489 195.935 70.1778ZM204.442 65.7963C204.463 65.7305 204.424 65.6616 204.387 65.6032C204 64.9969 203.614 64.3909 203.228 63.7845C203.053 63.5103 202.715 63.1995 202.452 63.3944C201.507 64.0971 200.831 65.1433 200.583 66.285C200.535 66.5104 200.506 66.7619 200.631 66.9568C200.862 67.3195 201.414 67.2388 201.823 67.0941C202.694 66.7859 203.534 66.3896 204.324 65.9132C204.373 65.884 204.425 65.85 204.442 65.7963ZM238.066 36.9381C238.027 36.7803 237.837 36.7119 237.673 36.7049C237.175 36.6836 236.654 37.0877 236.686 37.579C236.717 38.0698 237.457 38.3793 237.766 37.9931C237.859 37.8763 237.899 37.7276 237.936 37.5838C237.972 37.4412 238.01 37.2987 238.046 37.1561C238.065 37.0846 238.083 37.0096 238.066 36.9381Z" fill="#00160A"/>
<defs>
<linearGradient id="paint0_linear" x1="0" y1="114" x2="258.565" y2="114" gradientUnits="userSpaceOnUse">
<stop stop-color="#1FA2FF"/>
<stop offset="0.5" stop-color="#12D8FA"/>
<stop offset="1" stop-color="#A6FFCB"/>
</linearGradient>
</defs>
</svg>
